<svg width="612" height="170" viewBox="0 0 612 170" fill="none" xmlns="http://www.w3.org/2000/svg">
<mask id="path-1-outside-1_4206_1044" maskUnits="userSpaceOnUse" x="1" y="25" width="586" height="92" fill="black">
<rect fill="white" x="1" y="25" width="586" height="92"/>
<path d="M4.608 45.12H27.072V50.208C31.872 45.984 38.016 43.872 45.504 43.872C54.144 43.872 61.088 46.496 66.336 51.744C71.136 56.544 73.536 62.976 73.536 71.04C73.536 77.312 71.872 82.688 68.544 87.168C63.36 94.272 55.712 97.824 45.6 97.824C42.592 97.824 39.744 97.44 37.056 96.672C34.368 95.904 32.448 95.2 31.296 94.56C30.144 93.856 28.736 92.928 27.072 91.776V113.76H4.608V45.12ZM50.592 70.56C50.592 67.552 49.632 64.928 47.712 62.688C45.856 60.384 43.04 59.232 39.264 59.232C35.168 59.232 32.096 60.384 30.048 62.688C28.064 64.928 27.072 67.36 27.072 69.984C27.072 73.376 28.096 76.256 30.144 78.624C32.192 80.992 35.136 82.176 38.976 82.176C42.624 82.176 45.472 81.088 47.52 78.912C49.568 76.672 50.592 73.888 50.592 70.56ZM149.855 96H126.335C125.887 94.144 125.599 92.512 125.471 91.104C116.319 95.328 107.903 97.44 100.223 97.44C92.6073 97.44 86.9753 95.872 83.3273 92.736C79.6793 89.6 77.8553 85.792 77.8553 81.312C77.8553 74.4 81.2153 69.728 87.9353 67.296C94.7193 64.8 106.911 63.552 124.511 63.552H125.087V62.976C125.087 58.56 121.439 56.352 114.143 56.352C106.399 56.352 102.271 57.888 101.759 60.96H79.9673C80.9913 54.56 83.9673 50.048 88.8953 47.424C93.8873 44.736 102.047 43.392 113.375 43.392C122.143 43.392 128.959 44.064 133.823 45.408C138.751 46.688 142.175 48.608 144.095 51.168C146.079 53.728 147.071 57.248 147.071 61.728V88.608C147.071 90.72 147.263 92.256 147.647 93.216C148.095 94.112 148.831 95.04 149.855 96ZM125.375 72.672L112.223 73.344C108.319 73.536 105.439 74.048 103.583 74.88C101.727 75.648 100.799 76.992 100.799 78.912C100.799 80.192 101.439 81.376 102.719 82.464C103.999 83.488 105.983 84 108.671 84C110.847 84 113.343 83.52 116.159 82.56C119.039 81.6 121.311 80.192 122.975 78.336C124.063 77.12 124.863 75.232 125.375 72.672ZM179.615 45.12V51.552C182.879 49.184 186.175 47.36 189.503 46.08C192.831 44.8 196.895 44.16 201.695 44.16C205.855 44.16 209.407 44.608 212.351 45.504C215.359 46.336 217.695 47.424 219.359 48.768C221.087 50.112 222.431 51.872 223.391 54.048C224.351 56.16 224.959 58.208 225.215 60.192C225.535 62.176 225.695 64.512 225.695 67.2V96H202.943V71.52C202.943 62.944 199.103 58.656 191.423 58.656C188.927 58.656 186.815 59.136 185.087 60.096C183.423 60.992 182.207 62.208 181.439 63.744C180.735 65.216 180.255 66.592 179.999 67.872C179.743 69.088 179.615 70.4 179.615 71.808V96H156.767V45.12H179.615ZM306.385 73.728H255.889C256.337 75.968 257.169 77.888 258.385 79.488C259.601 81.024 261.009 82.144 262.609 82.848C264.209 83.488 265.585 83.936 266.737 84.192C267.953 84.448 269.041 84.576 270.001 84.576C272.561 84.576 274.865 84.096 276.913 83.136C279.025 82.112 280.529 81.056 281.425 79.968L305.041 81.12C302.609 86.112 298.353 90.08 292.273 93.024C286.193 95.968 278.417 97.44 268.945 97.44C264.465 97.44 260.177 96.96 256.081 96C251.985 95.104 248.113 93.664 244.465 91.68C240.817 89.696 237.905 86.88 235.729 83.232C233.553 79.52 232.465 75.2 232.465 70.272C232.465 61.632 235.889 54.944 242.737 50.208C245.937 47.904 249.553 46.24 253.585 45.216C257.617 44.192 262.737 43.68 268.945 43.68C282.769 43.68 292.849 46.976 299.185 53.568C303.985 58.688 306.385 65.408 306.385 73.728ZM256.657 64.896H282.577C280.593 59.456 276.273 56.736 269.617 56.736C262.769 56.736 258.449 59.456 256.657 64.896ZM335.235 96H312.483V28.224H335.235V96ZM367.012 40.128H344.452V28.224H367.012V40.128ZM367.012 96H344.548V45.12H367.012V96ZM373.157 80.544L396.005 79.488C396.261 81.024 397.093 82.272 398.501 83.232C399.973 84.192 401.445 84.832 402.917 85.152C404.453 85.408 406.053 85.536 407.717 85.536C413.669 85.536 416.645 83.936 416.645 80.736C416.645 79.456 415.397 78.528 412.901 77.952C410.469 77.312 406.693 76.64 401.573 75.936C396.517 75.168 392.261 74.304 388.805 73.344C386.821 72.832 385.285 72.384 384.197 72C383.109 71.552 381.765 70.848 380.165 69.888C378.629 68.864 377.477 67.52 376.709 65.856C375.941 64.192 375.557 62.208 375.557 59.904C375.557 54.336 378.661 50.048 384.869 47.04C390.181 44.608 397.669 43.392 407.333 43.392C426.149 43.392 436.901 49.024 439.589 60.288L417.125 61.248C416.805 59.648 415.685 58.336 413.765 57.312C411.845 56.288 409.349 55.776 406.277 55.776C400.645 55.776 397.829 57.216 397.829 60.096C397.829 62.144 402.437 63.616 411.653 64.512C411.717 64.576 411.781 64.608 411.845 64.608C411.973 64.608 412.069 64.608 412.133 64.608C423.333 65.696 430.597 67.2 433.925 69.12C437.765 71.296 439.685 74.656 439.685 79.2C439.685 82.976 438.149 86.368 435.077 89.376C429.381 94.88 420.133 97.632 407.333 97.632C404.261 97.632 401.093 97.472 397.829 97.152C394.629 96.896 390.789 96.128 386.309 94.848C381.893 93.568 378.693 91.84 376.709 89.664C374.661 87.488 373.477 84.448 373.157 80.544ZM478.422 96H462.102C452.31 96 447.414 92.736 447.414 86.208C447.414 82.88 447.478 78.016 447.606 71.616C447.798 65.152 447.894 61.408 447.894 60.384H440.694V47.232H447.99C448.118 38.08 448.214 32.352 448.278 30.048H470.07V47.232H478.422V60.384H470.166V77.184C470.166 78.784 470.582 79.936 471.414 80.64C472.246 81.28 473.686 81.6 475.734 81.6H478.422V96ZM555.699 96H532.179C531.731 94.144 531.443 92.512 531.315 91.104C522.163 95.328 513.747 97.44 506.067 97.44C498.451 97.44 492.819 95.872 489.171 92.736C485.523 89.6 483.699 85.792 483.699 81.312C483.699 74.4 487.059 69.728 493.779 67.296C500.563 64.8 512.755 63.552 530.355 63.552H530.931V62.976C530.931 58.56 527.283 56.352 519.987 56.352C512.243 56.352 508.115 57.888 507.603 60.96H485.811C486.835 54.56 489.811 50.048 494.739 47.424C499.731 44.736 507.891 43.392 519.219 43.392C527.987 43.392 534.803 44.064 539.667 45.408C544.595 46.688 548.019 48.608 549.939 51.168C551.923 53.728 552.915 57.248 552.915 61.728V88.608C552.915 90.72 553.107 92.256 553.491 93.216C553.939 94.112 554.675 95.04 555.699 96ZM531.219 72.672L518.067 73.344C514.163 73.536 511.283 74.048 509.427 74.88C507.571 75.648 506.643 76.992 506.643 78.912C506.643 80.192 507.283 81.376 508.563 82.464C509.843 83.488 511.827 84 514.515 84C516.691 84 519.187 83.52 522.003 82.56C524.883 81.6 527.155 80.192 528.819 78.336C529.907 77.12 530.707 75.232 531.219 72.672ZM583.922 96H561.842V78.336H583.922V96Z"/>
</mask>
<path d="M4.608 45.12V42.12H1.608V45.12H4.608ZM27.072 45.12H30.072V42.12H27.072V45.12ZM27.072 50.208H24.072V56.8442L29.0539 52.4601L27.072 50.208ZM66.336 51.744L68.4573 49.6227L68.4573 49.6227L66.336 51.744ZM68.544 87.168L66.1358 85.379L66.1282 85.3893L66.1206 85.3996L68.544 87.168ZM37.056 96.672L36.2318 99.5566L36.2318 99.5566L37.056 96.672ZM31.296 94.56L29.7316 97.1198L29.7847 97.1523L29.8391 97.1825L31.296 94.56ZM27.072 91.776L28.7796 89.3094L24.072 86.0503V91.776H27.072ZM27.072 113.76V116.76H30.072V113.76H27.072ZM4.608 113.76H1.608V116.76H4.608V113.76ZM47.712 62.688L45.3757 64.57L45.4044 64.6056L45.4342 64.6404L47.712 62.688ZM30.048 62.688L27.8058 60.6949L27.8022 60.6989L30.048 62.688ZM47.52 78.912L49.7046 80.9681L49.7195 80.9523L49.7341 80.9363L47.52 78.912ZM4.608 48.12H27.072V42.12H4.608V48.12ZM24.072 45.12V50.208H30.072V45.12H24.072ZM29.0539 52.4601C33.2145 48.7988 38.6135 46.872 45.504 46.872V40.872C37.4185 40.872 30.5295 43.1692 25.0901 47.9559L29.0539 52.4601ZM45.504 46.872C53.4895 46.872 59.6218 49.2724 64.2147 53.8653L68.4573 49.6227C62.5542 43.7196 54.7985 40.872 45.504 40.872V46.872ZM64.2147 53.8653C68.3479 57.9985 70.536 63.6111 70.536 71.04H76.536C76.536 62.3409 73.9241 55.0895 68.4573 49.6227L64.2147 53.8653ZM70.536 71.04C70.536 76.7512 69.0325 81.4796 66.1358 85.379L70.9522 88.957C74.7115 83.8964 76.536 77.8728 76.536 71.04H70.536ZM66.1206 85.3996C61.5918 91.6058 54.9182 94.824 45.6 94.824V100.824C56.5058 100.824 65.1282 96.9382 70.9674 88.9364L66.1206 85.3996ZM45.6 94.824C42.8497 94.824 40.2806 94.4733 37.8802 93.7874L36.2318 99.5566C39.2074 100.407 42.3343 100.824 45.6 100.824V94.824ZM37.8802 93.7874C35.2241 93.0285 33.5856 92.4001 32.7529 91.9375L29.8391 97.1825C31.3104 97.9999 33.5119 98.7795 36.2318 99.5566L37.8802 93.7874ZM32.8604 92.0002C31.7745 91.3366 30.4174 90.4432 28.7796 89.3094L25.3644 94.2426C27.0546 95.4128 28.5135 96.3754 29.7316 97.1198L32.8604 92.0002ZM24.072 91.776V113.76H30.072V91.776H24.072ZM27.072 110.76H4.608V116.76H27.072V110.76ZM7.608 113.76V45.12H1.608V113.76H7.608ZM53.592 70.56C53.592 66.8512 52.3857 63.5309 49.9898 60.7356L45.4342 64.6404C46.8783 66.3251 47.592 68.2528 47.592 70.56H53.592ZM50.0483 60.806C47.4712 57.607 43.6751 56.232 39.264 56.232V62.232C42.4049 62.232 44.2408 63.161 45.3757 64.57L50.0483 60.806ZM39.264 56.232C34.608 56.232 30.5944 57.5577 27.8058 60.6949L32.2902 64.6811C33.5976 63.2103 35.728 62.232 39.264 62.232V56.232ZM27.8022 60.6989C25.4051 63.4053 24.072 66.5242 24.072 69.984H30.072C30.072 68.1958 30.7229 66.4507 32.2938 64.6771L27.8022 60.6989ZM24.072 69.984C24.072 74.0318 25.3146 77.6261 27.8749 80.5865L32.4131 76.6615C30.8774 74.8858 30.072 72.7202 30.072 69.984H24.072ZM27.8749 80.5865C30.6197 83.7601 34.4797 85.176 38.976 85.176V79.176C35.7923 79.176 33.7643 78.2239 32.4131 76.6615L27.8749 80.5865ZM38.976 85.176C43.2549 85.176 46.9679 83.8759 49.7046 80.9681L45.3354 76.8559C43.9761 78.3001 41.9931 79.176 38.976 79.176V85.176ZM49.7341 80.9363C52.3382 78.0881 53.592 74.5588 53.592 70.56H47.592C47.592 73.2172 46.7978 75.2559 45.3059 76.8877L49.7341 80.9363ZM149.855 96V99H157.442L151.907 93.8114L149.855 96ZM126.335 96L123.419 96.7039L123.973 99H126.335V96ZM125.471 91.104L128.459 90.8324L128.074 86.5986L124.214 88.3801L125.471 91.104ZM83.3273 92.736L85.2829 90.461L85.2829 90.461L83.3273 92.736ZM87.9353 67.296L88.9562 70.1169L88.9637 70.1142L88.9711 70.1115L87.9353 67.296ZM125.087 63.552V66.552H128.087V63.552H125.087ZM101.759 60.96V63.96H104.301L104.718 61.4532L101.759 60.96ZM79.9673 60.96L77.0049 60.486L76.4491 63.96H79.9673V60.96ZM88.8953 47.424L90.3052 50.072L90.3175 50.0654L88.8953 47.424ZM133.823 45.408L133.024 48.2996L133.047 48.3058L133.069 48.3117L133.823 45.408ZM144.095 51.168L141.695 52.968L141.709 52.987L141.724 53.0057L144.095 51.168ZM147.647 93.216L144.862 94.3302L144.908 94.446L144.964 94.5576L147.647 93.216ZM125.375 72.672L128.317 73.2603L129.073 69.4791L125.222 69.6759L125.375 72.672ZM112.223 73.344L112.371 76.3404L112.376 76.3401L112.223 73.344ZM103.583 74.88L104.73 77.652L104.771 77.6354L104.81 77.6175L103.583 74.88ZM102.719 82.464L100.776 84.7498L100.81 84.7787L100.845 84.8066L102.719 82.464ZM116.159 82.56L115.211 79.7139L115.201 79.7172L115.191 79.7205L116.159 82.56ZM122.975 78.336L125.209 80.3386L125.211 80.3364L122.975 78.336ZM149.855 93H126.335V99H149.855V93ZM129.252 95.2961C128.827 93.5365 128.57 92.0544 128.459 90.8324L122.484 91.3756C122.628 92.9696 122.948 94.7515 123.419 96.7039L129.252 95.2961ZM124.214 88.3801C115.338 92.4766 107.356 94.44 100.223 94.44V100.44C108.451 100.44 117.3 98.1794 126.728 93.8279L124.214 88.3801ZM100.223 94.44C92.929 94.44 88.1473 92.9234 85.2829 90.461L81.3716 95.0109C85.8032 98.8206 92.2855 100.44 100.223 100.44V94.44ZM85.2829 90.461C82.2424 87.8473 80.8553 84.8471 80.8553 81.312H74.8553C74.8553 86.7369 77.1161 91.3527 81.3716 95.0109L85.2829 90.461ZM80.8553 81.312C80.8553 78.3553 81.5667 76.1055 82.8108 74.3756C84.0606 72.6377 86.0263 71.1773 88.9562 70.1169L86.9143 64.4751C83.1242 65.8467 80.0499 67.9383 77.9397 70.8724C75.8238 73.8145 74.8553 77.3567 74.8553 81.312H80.8553ZM88.9711 70.1115C95.1995 67.8199 106.9 66.552 124.511 66.552V60.552C106.922 60.552 94.239 61.7801 86.8994 64.4805L88.9711 70.1115ZM124.511 66.552H125.087V60.552H124.511V66.552ZM128.087 63.552V62.976H122.087V63.552H128.087ZM128.087 62.976C128.087 59.764 126.665 57.1122 123.905 55.4415C121.387 53.9175 117.996 53.352 114.143 53.352V59.352C117.586 59.352 119.668 59.8905 120.798 60.5745C121.685 61.1117 122.087 61.772 122.087 62.976H128.087ZM114.143 53.352C110.143 53.352 106.754 53.7393 104.193 54.6923C101.587 55.662 99.3013 57.4592 98.8001 60.4668L104.718 61.4532C104.729 61.3888 104.763 60.882 106.285 60.3157C107.852 59.7326 110.4 59.352 114.143 59.352V53.352ZM101.759 57.96H79.9673V63.96H101.759V57.96ZM82.9296 61.434C83.8322 55.7925 86.347 52.1796 90.3052 50.072L87.4853 44.776C81.5875 47.9164 78.1503 53.3275 77.0049 60.486L82.9296 61.434ZM90.3175 50.0654C94.6191 47.7492 102.141 46.392 113.375 46.392V40.392C101.953 40.392 93.1554 41.7228 87.473 44.7826L90.3175 50.0654ZM113.375 46.392C122.04 46.392 128.543 47.0615 133.024 48.2996L134.622 42.5164C129.375 41.0665 122.246 40.392 113.375 40.392V46.392ZM133.069 48.3117C137.703 49.5152 140.362 51.1907 141.695 52.968L146.495 49.368C143.988 46.0253 139.8 43.8608 134.577 42.5043L133.069 48.3117ZM141.724 53.0057C143.17 54.871 144.071 57.6624 144.071 61.728H150.071C150.071 56.8335 148.989 52.585 146.467 49.3303L141.724 53.0057ZM144.071 61.728V88.608H150.071V61.728H144.071ZM144.071 88.608C144.071 90.7875 144.254 92.8094 144.862 94.3302L150.433 92.1018C150.273 91.7026 150.071 90.6525 150.071 88.608H144.071ZM144.964 94.5576C145.62 95.8706 146.616 97.0758 147.803 98.1886L151.907 93.8114C151.046 93.0042 150.57 92.3534 150.331 91.8744L144.964 94.5576ZM125.222 69.6759L112.07 70.3479L112.376 76.3401L125.528 75.6681L125.222 69.6759ZM112.076 70.3476C108.078 70.5442 104.738 71.0746 102.356 72.1425L104.81 77.6175C106.14 77.0214 108.56 76.5278 112.371 76.3404L112.076 70.3476ZM102.436 72.1079C101.097 72.662 99.8874 73.5127 99.0266 74.7594C98.1591 76.0157 97.7993 77.4527 97.7993 78.912H103.799C103.799 78.4513 103.903 78.2563 103.964 78.1686C104.031 78.0713 104.213 77.866 104.73 77.652L102.436 72.1079ZM97.7993 78.912C97.7993 81.3284 99.0492 83.2818 100.776 84.7498L104.662 80.1782C103.829 79.4702 103.799 79.0556 103.799 78.912H97.7993ZM100.845 84.8066C102.904 86.4533 105.705 87 108.671 87V81C106.262 81 105.095 80.5227 104.593 80.1214L100.845 84.8066ZM108.671 87C111.273 87 114.106 86.4295 117.127 85.3995L115.191 79.7205C112.581 80.6105 110.422 81 108.671 81V87ZM117.108 85.406C120.375 84.317 123.129 82.6588 125.209 80.3386L120.742 76.3334C119.494 77.7252 117.703 78.883 115.211 79.7139L117.108 85.406ZM125.211 80.3364C126.81 78.5495 127.757 76.0608 128.317 73.2603L122.434 72.0837C121.97 74.4032 121.317 75.6905 120.74 76.3356L125.211 80.3364ZM179.615 45.12H182.615V42.12H179.615V45.12ZM179.615 51.552H176.615V57.4348L181.376 53.9803L179.615 51.552ZM189.503 46.08L188.426 43.28L188.426 43.28L189.503 46.08ZM212.351 45.504L211.477 48.374L211.514 48.3852L211.551 48.3954L212.351 45.504ZM219.359 48.768L217.473 51.1018L217.495 51.1191L217.517 51.1361L219.359 48.768ZM223.391 54.048L220.646 55.2589L220.652 55.2742L220.659 55.2894L223.391 54.048ZM225.215 60.192L222.239 60.5759L222.245 60.6229L222.253 60.6697L225.215 60.192ZM225.695 96V99H228.695V96H225.695ZM202.943 96H199.943V99H202.943V96ZM185.087 60.096L186.509 62.7374L186.526 62.7281L186.543 62.7185L185.087 60.096ZM181.439 63.744L178.755 62.4024L178.743 62.4259L178.732 62.4496L181.439 63.744ZM179.999 67.872L182.934 68.49L182.937 68.4752L182.94 68.4603L179.999 67.872ZM179.615 96V99H182.615V96H179.615ZM156.767 96H153.767V99H156.767V96ZM156.767 45.12V42.12H153.767V45.12H156.767ZM176.615 45.12V51.552H182.615V45.12H176.615ZM181.376 53.9803C184.456 51.7458 187.524 50.0551 190.579 48.88L188.426 43.28C184.825 44.6649 181.301 46.6222 177.853 49.1237L181.376 53.9803ZM190.579 48.88C193.467 47.7693 197.143 47.16 201.695 47.16V41.16C196.646 41.16 192.194 41.8307 188.426 43.28L190.579 48.88ZM201.695 47.16C205.655 47.16 208.896 47.5884 211.477 48.374L213.224 42.634C209.917 41.6276 206.054 41.16 201.695 41.16V47.16ZM211.551 48.3954C214.329 49.164 216.241 50.1062 217.473 51.1018L221.244 46.4342C219.148 44.7418 216.388 43.508 213.15 42.6126L211.551 48.3954ZM217.517 51.1361C218.819 52.1491 219.869 53.4972 220.646 55.2589L226.135 52.8371C224.992 50.2468 223.354 48.0749 221.2 46.3999L217.517 51.1361ZM220.659 55.2894C221.515 57.1718 222.027 58.9312 222.239 60.5759L228.19 59.8081C227.89 57.4848 227.186 55.1482 226.122 52.8066L220.659 55.2894ZM222.253 60.6697C222.54 62.4532 222.695 64.6222 222.695 67.2H228.695C228.695 64.4018 228.529 61.8988 228.176 59.7143L222.253 60.6697ZM222.695 67.2V96H228.695V67.2H222.695ZM225.695 93H202.943V99H225.695V93ZM205.943 96V71.52H199.943V96H205.943ZM205.943 71.52C205.943 66.8462 204.903 62.7806 202.297 59.8706C199.635 56.8977 195.816 55.656 191.423 55.656V61.656C194.709 61.656 196.65 62.5583 197.828 63.8734C199.062 65.2514 199.943 67.6178 199.943 71.52H205.943ZM191.423 55.656C188.548 55.656 185.906 56.2091 183.63 57.4735L186.543 62.7185C187.723 62.0629 189.305 61.656 191.423 61.656V55.656ZM183.664 57.4546C181.513 58.6128 179.827 60.2581 178.755 62.4024L184.122 65.0856C184.586 64.1579 185.332 63.3712 186.509 62.7374L183.664 57.4546ZM178.732 62.4496C177.946 64.093 177.372 65.7076 177.057 67.2836L182.94 68.4603C183.137 67.4764 183.523 66.339 184.145 65.0384L178.732 62.4496ZM177.063 67.254C176.759 68.698 176.615 70.2193 176.615 71.808H182.615C182.615 70.5807 182.726 69.478 182.934 68.49L177.063 67.254ZM176.615 71.808V96H182.615V71.808H176.615ZM179.615 93H156.767V99H179.615V93ZM159.767 96V45.12H153.767V96H159.767ZM156.767 48.12H179.615V42.12H156.767V48.12ZM306.385 73.728V76.728H309.385V73.728H306.385ZM255.889 73.728V70.728H252.229L252.947 74.3163L255.889 73.728ZM258.385 79.488L255.996 81.3032L256.014 81.3269L256.033 81.3501L258.385 79.488ZM262.609 82.848L261.401 85.5939L261.447 85.6145L261.495 85.6334L262.609 82.848ZM266.737 84.192L266.086 87.1206L266.102 87.1242L266.119 87.1276L266.737 84.192ZM276.913 83.136L278.186 85.8524L278.204 85.844L278.222 85.8354L276.913 83.136ZM281.425 79.968L281.571 76.9716L280.066 76.8982L279.109 78.0609L281.425 79.968ZM305.041 81.12L307.738 82.4339L309.73 78.3452L305.187 78.1236L305.041 81.12ZM292.273 93.024L293.58 95.7241L293.58 95.7241L292.273 93.024ZM256.081 96L256.765 93.0792L256.744 93.0741L256.722 93.0693L256.081 96ZM244.465 91.68L245.898 89.0445L245.898 89.0445L244.465 91.68ZM235.729 83.232L233.141 84.7492L233.146 84.759L233.152 84.7688L235.729 83.232ZM242.737 50.208L244.443 52.6754L244.467 52.6592L244.49 52.6426L242.737 50.208ZM253.585 45.216L252.846 42.3083L252.846 42.3083L253.585 45.216ZM299.185 53.568L301.373 51.5162L301.361 51.5026L301.348 51.4891L299.185 53.568ZM256.657 64.896L253.807 63.9574L252.51 67.896H256.657V64.896ZM282.577 64.896V67.896H286.864L285.395 63.8681L282.577 64.896ZM306.385 70.728H255.889V76.728H306.385V70.728ZM252.947 74.3163C253.472 76.9408 254.47 79.2949 255.996 81.3032L260.773 77.6728C259.868 76.4811 259.202 74.9952 258.83 73.1397L252.947 74.3163ZM256.033 81.3501C257.515 83.2226 259.301 84.6702 261.401 85.5939L263.817 80.1021C262.716 79.6178 261.687 78.8254 260.737 77.6259L256.033 81.3501ZM261.495 85.6334C263.183 86.3088 264.722 86.8175 266.086 87.1206L267.388 81.2634C266.447 81.0545 265.234 80.6672 263.723 80.0626L261.495 85.6334ZM266.119 87.1276C267.482 87.4147 268.783 87.576 270.001 87.576V81.576C269.299 81.576 268.424 81.4813 267.355 81.2564L266.119 87.1276ZM270.001 87.576C272.943 87.576 275.69 87.0224 278.186 85.8524L275.639 80.4196C274.039 81.1696 272.179 81.576 270.001 81.576V87.576ZM278.222 85.8354C280.497 84.7324 282.446 83.4474 283.741 81.8751L279.109 78.0609C278.612 78.6646 277.553 79.4916 275.604 80.4366L278.222 85.8354ZM281.279 82.9644L304.895 84.1164L305.187 78.1236L281.571 76.9716L281.279 82.9644ZM302.344 79.8061C300.266 84.071 296.575 87.6077 290.965 90.3239L293.58 95.7241C300.131 92.5523 304.951 88.153 307.738 82.4339L302.344 79.8061ZM290.965 90.3239C285.423 93.0076 278.135 94.44 268.945 94.44V100.44C278.699 100.44 286.963 98.9284 293.58 95.7241L290.965 90.3239ZM268.945 94.44C264.68 94.44 260.623 93.9833 256.765 93.0792L255.396 98.9208C259.731 99.9367 264.249 100.44 268.945 100.44V94.44ZM256.722 93.0693C252.9 92.2332 249.295 90.8919 245.898 89.0445L243.031 94.3155C246.931 96.4361 251.07 97.9748 255.44 98.9307L256.722 93.0693ZM245.898 89.0445C242.734 87.3237 240.212 84.8922 238.305 81.6952L233.152 84.7688C235.597 88.8678 238.9 92.0683 243.031 94.3155L245.898 89.0445ZM238.317 81.7148C236.448 78.5265 235.465 74.7454 235.465 70.272H229.465C229.465 75.6546 230.658 80.5135 233.141 84.7492L238.317 81.7148ZM235.465 70.272C235.465 62.5727 238.441 56.8265 244.443 52.6754L241.03 47.7406C233.337 53.0615 229.465 60.6913 229.465 70.272H235.465ZM244.49 52.6426C247.368 50.5705 250.636 49.0602 254.323 48.1237L252.846 42.3083C248.47 43.4198 244.506 45.2375 240.984 47.7734L244.49 52.6426ZM254.323 48.1237C258.027 47.1831 262.876 46.68 268.945 46.68V40.68C262.597 40.68 257.207 41.2009 252.846 42.3083L254.323 48.1237ZM268.945 46.68C282.367 46.68 291.485 49.8869 297.022 55.6469L301.348 51.4891C294.212 44.0651 283.171 40.68 268.945 40.68V46.68ZM296.996 55.6198C301.18 60.083 303.385 66.0198 303.385 73.728H309.385C309.385 64.7962 306.789 57.293 301.373 51.5162L296.996 55.6198ZM256.657 67.896H282.577V61.896H256.657V67.896ZM285.395 63.8681C284.207 60.6113 282.245 57.9987 279.447 56.2373C276.683 54.4971 273.342 53.736 269.617 53.736V59.736C272.548 59.736 274.694 60.3349 276.25 61.3147C277.773 62.2733 278.962 63.7407 279.758 65.9239L285.395 63.8681ZM269.617 53.736C265.815 53.736 262.418 54.4894 259.642 56.2373C256.82 58.0145 254.893 60.6607 253.807 63.9574L259.506 65.8346C260.212 63.6913 261.342 62.2575 262.839 61.3147C264.383 60.3426 266.571 59.736 269.617 59.736V53.736ZM335.235 96V99H338.235V96H335.235ZM312.483 96H309.483V99H312.483V96ZM312.483 28.224V25.224H309.483V28.224H312.483ZM335.235 28.224H338.235V25.224H335.235V28.224ZM335.235 93H312.483V99H335.235V93ZM315.483 96V28.224H309.483V96H315.483ZM312.483 31.224H335.235V25.224H312.483V31.224ZM332.235 28.224V96H338.235V28.224H332.235ZM367.012 40.128V43.128H370.012V40.128H367.012ZM344.452 40.128H341.452V43.128H344.452V40.128ZM344.452 28.224V25.224H341.452V28.224H344.452ZM367.012 28.224H370.012V25.224H367.012V28.224ZM367.012 96V99H370.012V96H367.012ZM344.548 96H341.548V99H344.548V96ZM344.548 45.12V42.12H341.548V45.12H344.548ZM367.012 45.12H370.012V42.12H367.012V45.12ZM367.012 37.128H344.452V43.128H367.012V37.128ZM347.452 40.128V28.224H341.452V40.128H347.452ZM344.452 31.224H367.012V25.224H344.452V31.224ZM364.012 28.224V40.128H370.012V28.224H364.012ZM367.012 93H344.548V99H367.012V93ZM347.548 96V45.12H341.548V96H347.548ZM344.548 48.12H367.012V42.12H344.548V48.12ZM364.012 45.12V96H370.012V45.12H364.012ZM373.157 80.544L373.018 77.5472L369.913 77.6907L370.167 80.7891L373.157 80.544ZM396.005 79.488L398.964 78.9948L398.526 76.3683L395.866 76.4912L396.005 79.488ZM398.501 83.232L396.81 85.7107L396.836 85.728L396.862 85.7448L398.501 83.232ZM402.917 85.152L402.279 88.0835L402.351 88.0991L402.423 88.1112L402.917 85.152ZM412.901 77.952L412.137 80.8532L412.181 80.8649L412.226 80.8752L412.901 77.952ZM401.573 75.936L401.122 78.902L401.143 78.9052L401.164 78.908L401.573 75.936ZM388.805 73.344L389.607 70.4534L389.581 70.4461L389.554 70.4392L388.805 73.344ZM384.197 72L383.054 74.774L383.125 74.8033L383.198 74.829L384.197 72ZM380.165 69.888L378.5 72.3841L378.56 72.4237L378.621 72.4605L380.165 69.888ZM376.709 65.856L379.432 64.5988L379.432 64.5988L376.709 65.856ZM384.869 47.04L383.62 44.3123L383.59 44.3259L383.56 44.3402L384.869 47.04ZM439.589 60.288L439.717 63.2853L443.351 63.1299L442.507 59.5916L439.589 60.288ZM417.125 61.248L414.183 61.8363L414.686 64.3549L417.253 64.2453L417.125 61.248ZM411.653 64.512L413.774 62.3907L413.013 61.6302L411.943 61.5261L411.653 64.512ZM412.133 64.608L412.423 61.6221L412.278 61.608H412.133V64.608ZM433.925 69.12L432.425 71.7186L432.435 71.7244L432.445 71.7301L433.925 69.12ZM435.077 89.376L437.161 91.5334L437.168 91.5265L437.175 91.5195L435.077 89.376ZM397.829 97.152L398.121 94.1663L398.094 94.1637L398.068 94.1616L397.829 97.152ZM386.309 94.848L385.473 97.7294L385.484 97.7326L386.309 94.848ZM376.709 89.664L378.925 87.6427L378.909 87.6252L378.893 87.6079L376.709 89.664ZM373.295 83.5408L396.143 82.4848L395.866 76.4912L373.018 77.5472L373.295 83.5408ZM393.045 79.9812C393.449 82.4051 394.797 84.3379 396.81 85.7107L400.191 80.7533C399.388 80.2061 399.072 79.6429 398.964 78.9948L393.045 79.9812ZM396.862 85.7448C398.589 86.8715 400.397 87.6743 402.279 88.0835L403.554 82.2205C402.492 81.9897 401.356 81.5125 400.139 80.7192L396.862 85.7448ZM402.423 88.1112C404.133 88.3961 405.898 88.536 407.717 88.536V82.536C406.207 82.536 404.772 82.4199 403.41 82.1928L402.423 88.1112ZM407.717 88.536C410.863 88.536 413.691 88.1298 415.833 86.9783C416.949 86.3785 417.937 85.5438 418.636 84.4168C419.34 83.2812 419.645 82.0183 419.645 80.736H413.645C413.645 81.0537 413.577 81.1908 413.537 81.2552C413.492 81.3282 413.364 81.4935 412.992 81.6937C412.158 82.1422 410.522 82.536 407.717 82.536V88.536ZM419.645 80.736C419.645 78.9398 418.7 77.5662 417.499 76.6726C416.395 75.8522 414.998 75.3572 413.575 75.0288L412.226 80.8752C412.737 80.9931 413.129 81.1167 413.42 81.2338C413.716 81.3525 413.864 81.4469 413.918 81.4874C413.969 81.5248 413.89 81.4791 413.799 81.3182C413.698 81.1394 413.645 80.9282 413.645 80.736H419.645ZM413.664 75.0508C411.048 74.3625 407.124 73.6711 401.981 72.964L401.164 78.908C406.261 79.6089 409.889 80.2615 412.137 80.8532L413.664 75.0508ZM402.023 72.97C397.04 72.2132 392.91 71.3709 389.607 70.4534L388.002 76.2346C391.611 77.2371 395.993 78.1228 401.122 78.902L402.023 72.97ZM389.554 70.4392C387.601 69.935 386.162 69.5123 385.195 69.171L383.198 74.829C384.407 75.2557 386.04 75.729 388.055 76.2488L389.554 70.4392ZM385.339 69.226C384.445 68.8581 383.245 68.2375 381.708 67.3155L378.621 72.4605C380.284 73.4585 381.772 74.2459 383.054 74.774L385.339 69.226ZM381.829 67.3918C380.75 66.6727 379.966 65.7561 379.432 64.5988L373.985 67.1132C374.987 69.2839 376.507 71.0553 378.5 72.3841L381.829 67.3918ZM379.432 64.5988C378.887 63.4167 378.557 61.8822 378.557 59.904H372.557C372.557 62.5338 372.994 64.9673 373.985 67.1132L379.432 64.5988ZM378.557 59.904C378.557 57.7169 379.153 55.8758 380.315 54.2711C381.501 52.6318 383.388 51.0911 386.177 49.7398L383.56 44.3402C380.141 45.9968 377.372 48.1041 375.454 50.7529C373.512 53.4361 372.557 56.5231 372.557 59.904H378.557ZM386.117 49.7677C390.862 47.5953 397.853 46.392 407.333 46.392V40.392C397.484 40.392 389.499 41.6207 383.62 44.3123L386.117 49.7677ZM407.333 46.392C416.498 46.392 423.343 47.7729 428.116 50.2735C432.766 52.7091 435.539 56.2411 436.67 60.9844L442.507 59.5916C440.95 53.0709 437.003 48.1548 430.901 44.9585C424.922 41.8271 416.983 40.392 407.333 40.392V46.392ZM439.46 57.2907L416.996 58.2507L417.253 64.2453L439.717 63.2853L439.46 57.2907ZM420.066 60.6596C419.516 57.9073 417.607 55.9611 415.176 54.6649L412.353 59.9591C413.762 60.7109 414.093 61.3887 414.183 61.8363L420.066 60.6596ZM415.176 54.6649C412.68 53.3335 409.65 52.776 406.277 52.776V58.776C409.047 58.776 411.009 59.2425 412.353 59.9591L415.176 54.6649ZM406.277 52.776C403.302 52.776 400.618 53.1401 398.575 54.185C397.51 54.7296 396.539 55.5001 395.843 56.5678C395.137 57.6509 394.829 58.8647 394.829 60.096H400.829C400.829 59.9817 400.842 59.918 400.85 59.8907C400.857 59.8658 400.863 59.8542 400.87 59.8442C400.878 59.8319 400.963 59.7024 401.306 59.527C402.079 59.1319 403.619 58.776 406.277 58.776V52.776ZM394.829 60.096C394.829 61.8888 395.879 63.1498 396.871 63.908C397.843 64.6503 399.081 65.1813 400.372 65.5937C402.986 66.4289 406.697 67.0444 411.362 67.4979L411.943 61.5261C407.392 61.0836 404.191 60.5151 402.197 59.8783C401.184 59.5547 400.694 59.2777 400.514 59.14C400.354 59.0182 400.829 59.3272 400.829 60.096H394.829ZM409.531 66.6333C409.922 67.0243 410.704 67.608 411.845 67.608V61.608C412.857 61.608 413.511 62.1277 413.774 62.3907L409.531 66.6333ZM411.845 67.608C411.845 67.608 411.845 67.608 411.845 67.608C411.846 67.608 411.846 67.608 411.846 67.608C411.846 67.608 411.846 67.608 411.847 67.608C411.847 67.608 411.847 67.608 411.847 67.608C411.848 67.608 411.848 67.608 411.848 67.608C411.848 67.608 411.849 67.608 411.849 67.608C411.849 67.608 411.849 67.608 411.85 67.608C411.85 67.608 411.85 67.608 411.85 67.608C411.851 67.608 411.851 67.608 411.851 67.608C411.851 67.608 411.852 67.608 411.852 67.608C411.852 67.608 411.852 67.608 411.853 67.608C411.853 67.608 411.853 67.608 411.853 67.608C411.854 67.608 411.854 67.608 411.854 67.608C411.854 67.608 411.855 67.608 411.855 67.608C411.855 67.608 411.855 67.608 411.856 67.608C411.856 67.608 411.856 67.608 411.856 67.608C411.857 67.608 411.857 67.608 411.857 67.608C411.857 67.608 411.858 67.608 411.858 67.608C411.858 67.608 411.858 67.608 411.859 67.608C411.859 67.608 411.859 67.608 411.859 67.608C411.86 67.608 411.86 67.608 411.86 67.608C411.86 67.608 411.861 67.608 411.861 67.608C411.861 67.608 411.861 67.608 411.862 67.608C411.862 67.608 411.862 67.608 411.862 67.608C411.863 67.608 411.863 67.608 411.863 67.608C411.863 67.608 411.864 67.608 411.864 67.608C411.864 67.608 411.864 67.608 411.864 67.608C411.865 67.608 411.865 67.608 411.865 67.608C411.865 67.608 411.866 67.608 411.866 67.608C411.866 67.608 411.866 67.608 411.867 67.608C411.867 67.608 411.867 67.608 411.867 67.608C411.868 67.608 411.868 67.608 411.868 67.608C411.868 67.608 411.869 67.608 411.869 67.608C411.869 67.608 411.869 67.608 411.87 67.608C411.87 67.608 411.87 67.608 411.87 67.608C411.871 67.608 411.871 67.608 411.871 67.608C411.871 67.608 411.872 67.608 411.872 67.608C411.872 67.608 411.872 67.608 411.872 67.608C411.873 67.608 411.873 67.608 411.873 67.608C411.873 67.608 411.874 67.608 411.874 67.608C411.874 67.608 411.874 67.608 411.875 67.608C411.875 67.608 411.875 67.608 411.875 67.608C411.876 67.608 411.876 67.608 411.876 67.608C411.876 67.608 411.877 67.608 411.877 67.608C411.877 67.608 411.877 67.608 411.878 67.608C411.878 67.608 411.878 67.608 411.878 67.608C411.878 67.608 411.879 67.608 411.879 67.608C411.879 67.608 411.879 67.608 411.88 67.608C411.88 67.608 411.88 67.608 411.88 67.608C411.881 67.608 411.881 67.608 411.881 67.608C411.881 67.608 411.882 67.608 411.882 67.608C411.882 67.608 411.882 67.608 411.883 67.608C411.883 67.608 411.883 67.608 411.883 67.608C411.883 67.608 411.884 67.608 411.884 67.608C411.884 67.608 411.884 67.608 411.885 67.608C411.885 67.608 411.885 67.608 411.885 67.608C411.886 67.608 411.886 67.608 411.886 67.608C411.886 67.608 411.887 67.608 411.887 67.608C411.887 67.608 411.887 67.608 411.887 67.608C411.888 67.608 411.888 67.608 411.888 67.608C411.888 67.608 411.889 67.608 411.889 67.608C411.889 67.608 411.889 67.608 411.89 67.608C411.89 67.608 411.89 67.608 411.89 67.608C411.891 67.608 411.891 67.608 411.891 67.608C411.891 67.608 411.891 67.608 411.892 67.608C411.892 67.608 411.892 67.608 411.892 67.608C411.893 67.608 411.893 67.608 411.893 67.608C411.893 67.608 411.894 67.608 411.894 67.608C411.894 67.608 411.894 67.608 411.895 67.608C411.895 67.608 411.895 67.608 411.895 67.608C411.895 67.608 411.896 67.608 411.896 67.608C411.896 67.608 411.896 67.608 411.897 67.608C411.897 67.608 411.897 67.608 411.897 67.608C411.898 67.608 411.898 67.608 411.898 67.608C411.898 67.608 411.898 67.608 411.899 67.608C411.899 67.608 411.899 67.608 411.899 67.608C411.9 67.608 411.9 67.608 411.9 67.608C411.9 67.608 411.901 67.608 411.901 67.608C411.901 67.608 411.901 67.608 411.901 67.608C411.902 67.608 411.902 67.608 411.902 67.608C411.902 67.608 411.903 67.608 411.903 67.608C411.903 67.608 411.903 67.608 411.904 67.608C411.904 67.608 411.904 67.608 411.904 67.608C411.904 67.608 411.905 67.608 411.905 67.608C411.905 67.608 411.905 67.608 411.906 67.608C411.906 67.608 411.906 67.608 411.906 67.608C411.907 67.608 411.907 67.608 411.907 67.608C411.907 67.608 411.907 67.608 411.908 67.608C411.908 67.608 411.908 67.608 411.908 67.608C411.909 67.608 411.909 67.608 411.909 67.608C411.909 67.608 411.909 67.608 411.91 67.608C411.91 67.608 411.91 67.608 411.91 67.608C411.911 67.608 411.911 67.608 411.911 67.608C411.911 67.608 411.912 67.608 411.912 67.608C411.912 67.608 411.912 67.608 411.912 67.608C411.913 67.608 411.913 67.608 411.913 67.608C411.913 67.608 411.914 67.608 411.914 67.608C411.914 67.608 411.914 67.608 411.914 67.608C411.915 67.608 411.915 67.608 411.915 67.608C411.915 67.608 411.916 67.608 411.916 67.608C411.916 67.608 411.916 67.608 411.917 67.608C411.917 67.608 411.917 67.608 411.917 67.608C411.917 67.608 411.918 67.608 411.918 67.608C411.918 67.608 411.918 67.608 411.919 67.608C411.919 67.608 411.919 67.608 411.919 67.608C411.919 67.608 411.92 67.608 411.92 67.608C411.92 67.608 411.92 67.608 411.921 67.608C411.921 67.608 411.921 67.608 411.921 67.608C411.921 67.608 411.922 67.608 411.922 67.608C411.922 67.608 411.922 67.608 411.923 67.608C411.923 67.608 411.923 67.608 411.923 67.608C411.923 67.608 411.924 67.608 411.924 67.608C411.924 67.608 411.924 67.608 411.925 67.608C411.925 67.608 411.925 67.608 411.925 67.608C411.925 67.608 411.926 67.608 411.926 67.608C411.926 67.608 411.926 67.608 411.927 67.608C411.927 67.608 411.927 67.608 411.927 67.608C411.927 67.608 411.928 67.608 411.928 67.608C411.928 67.608 411.928 67.608 411.929 67.608C411.929 67.608 411.929 67.608 411.929 67.608C411.929 67.608 411.93 67.608 411.93 67.608C411.93 67.608 411.93 67.608 411.931 67.608C411.931 67.608 411.931 67.608 411.931 67.608C411.931 67.608 411.932 67.608 411.932 67.608C411.932 67.608 411.932 67.608 411.933 67.608C411.933 67.608 411.933 67.608 411.933 67.608C411.933 67.608 411.934 67.608 411.934 67.608C411.934 67.608 411.934 67.608 411.935 67.608C411.935 67.608 411.935 67.608 411.935 67.608C411.935 67.608 411.936 67.608 411.936 67.608C411.936 67.608 411.936 67.608 411.936 67.608C411.937 67.608 411.937 67.608 411.937 67.608C411.937 67.608 411.938 67.608 411.938 67.608C411.938 67.608 411.938 67.608 411.938 67.608C411.939 67.608 411.939 67.608 411.939 67.608C411.939 67.608 411.94 67.608 411.94 67.608C411.94 67.608 411.94 67.608 411.94 67.608C411.941 67.608 411.941 67.608 411.941 67.608C411.941 67.608 411.941 67.608 411.942 67.608C411.942 67.608 411.942 67.608 411.942 67.608C411.943 67.608 411.943 67.608 411.943 67.608C411.943 67.608 411.943 67.608 411.944 67.608C411.944 67.608 411.944 67.608 411.944 67.608C411.944 67.608 411.945 67.608 411.945 67.608C411.945 67.608 411.945 67.608 411.946 67.608C411.946 67.608 411.946 67.608 411.946 67.608C411.946 67.608 411.947 67.608 411.947 67.608C411.947 67.608 411.947 67.608 411.947 67.608C411.948 67.608 411.948 67.608 411.948 67.608C411.948 67.608 411.949 67.608 411.949 67.608C411.949 67.608 411.949 67.608 411.949 67.608C411.95 67.608 411.95 67.608 411.95 67.608C411.95 67.608 411.95 67.608 411.951 67.608C411.951 67.608 411.951 67.608 411.951 67.608C411.952 67.608 411.952 67.608 411.952 67.608C411.952 67.608 411.952 67.608 411.953 67.608C411.953 67.608 411.953 67.608 411.953 67.608C411.953 67.608 411.954 67.608 411.954 67.608C411.954 67.608 411.954 67.608 411.954 67.608C411.955 67.608 411.955 67.608 411.955 67.608C411.955 67.608 411.956 67.608 411.956 67.608C411.956 67.608 411.956 67.608 411.956 67.608C411.957 67.608 411.957 67.608 411.957 67.608C411.957 67.608 411.957 67.608 411.958 67.608C411.958 67.608 411.958 67.608 411.958 67.608C411.958 67.608 411.959 67.608 411.959 67.608C411.959 67.608 411.959 67.608 411.96 67.608C411.96 67.608 411.96 67.608 411.96 67.608C411.96 67.608 411.961 67.608 411.961 67.608C411.961 67.608 411.961 67.608 411.961 67.608C411.962 67.608 411.962 67.608 411.962 67.608C411.962 67.608 411.962 67.608 411.963 67.608C411.963 67.608 411.963 67.608 411.963 67.608C411.963 67.608 411.964 67.608 411.964 67.608C411.964 67.608 411.964 67.608 411.965 67.608C411.965 67.608 411.965 67.608 411.965 67.608C411.965 67.608 411.966 67.608 411.966 67.608C411.966 67.608 411.966 67.608 411.966 67.608C411.967 67.608 411.967 67.608 411.967 67.608C411.967 67.608 411.967 67.608 411.968 67.608C411.968 67.608 411.968 67.608 411.968 67.608C411.968 67.608 411.969 67.608 411.969 67.608C411.969 67.608 411.969 67.608 411.969 67.608C411.97 67.608 411.97 67.608 411.97 67.608C411.97 67.608 411.971 67.608 411.971 67.608C411.971 67.608 411.971 67.608 411.971 67.608C411.972 67.608 411.972 67.608 411.972 67.608C411.972 67.608 411.972 67.608 411.973 67.608C411.973 67.608 411.973 67.608 411.973 67.608C411.973 67.608 411.974 67.608 411.974 67.608C411.974 67.608 411.974 67.608 411.974 67.608C411.975 67.608 411.975 67.608 411.975 67.608C411.975 67.608 411.975 67.608 411.976 67.608C411.976 67.608 411.976 67.608 411.976 67.608C411.976 67.608 411.977 67.608 411.977 67.608C411.977 67.608 411.977 67.608 411.977 67.608C411.978 67.608 411.978 67.608 411.978 67.608C411.978 67.608 411.978 67.608 411.979 67.608C411.979 67.608 411.979 67.608 411.979 67.608C411.979 67.608 411.98 67.608 411.98 67.608C411.98 67.608 411.98 67.608 411.98 67.608C411.981 67.608 411.981 67.608 411.981 67.608C411.981 67.608 411.981 67.608 411.982 67.608C411.982 67.608 411.982 67.608 411.982 67.608C411.982 67.608 411.983 67.608 411.983 67.608C411.983 67.608 411.983 67.608 411.983 67.608C411.984 67.608 411.984 67.608 411.984 67.608C411.984 67.608 411.984 67.608 411.985 67.608C411.985 67.608 411.985 67.608 411.985 67.608C411.985 67.608 411.986 67.608 411.986 67.608C411.986 67.608 411.986 67.608 411.986 67.608C411.987 67.608 411.987 67.608 411.987 67.608C411.987 67.608 411.987 67.608 411.988 67.608C411.988 67.608 411.988 67.608 411.988 67.608C411.988 67.608 411.989 67.608 411.989 67.608C411.989 67.608 411.989 67.608 411.989 67.608C411.99 67.608 411.99 67.608 411.99 67.608C411.99 67.608 411.99 67.608 411.991 67.608C411.991 67.608 411.991 67.608 411.991 67.608C411.991 67.608 411.992 67.608 411.992 67.608C411.992 67.608 411.992 67.608 411.992 67.608C411.993 67.608 411.993 67.608 411.993 67.608C411.993 67.608 411.993 67.608 411.994 67.608C411.994 67.608 411.994 67.608 411.994 67.608C411.994 67.608 411.995 67.608 411.995 67.608C411.995 67.608 411.995 67.608 411.995 67.608C411.995 67.608 411.996 67.608 411.996 67.608C411.996 67.608 411.996 67.608 411.996 67.608C411.997 67.608 411.997 67.608 411.997 67.608C411.997 67.608 411.997 67.608 411.998 67.608C411.998 67.608 411.998 67.608 411.998 67.608C411.998 67.608 411.999 67.608 411.999 67.608C411.999 67.608 411.999 67.608 411.999 67.608C412 67.608 412 67.608 412 67.608C412 67.608 412 67.608 412.001 67.608C412.001 67.608 412.001 67.608 412.001 67.608C412.001 67.608 412.001 67.608 412.002 67.608C412.002 67.608 412.002 67.608 412.002 67.608C412.002 67.608 412.003 67.608 412.003 67.608C412.003 67.608 412.003 67.608 412.003 67.608C412.004 67.608 412.004 67.608 412.004 67.608C412.004 67.608 412.004 67.608 412.005 67.608C412.005 67.608 412.005 67.608 412.005 67.608C412.005 67.608 412.006 67.608 412.006 67.608C412.006 67.608 412.006 67.608 412.006 67.608C412.006 67.608 412.007 67.608 412.007 67.608C412.007 67.608 412.007 67.608 412.007 67.608C412.008 67.608 412.008 67.608 412.008 67.608C412.008 67.608 412.008 67.608 412.009 67.608C412.009 67.608 412.009 67.608 412.009 67.608C412.009 67.608 412.009 67.608 412.01 67.608C412.01 67.608 412.01 67.608 412.01 67.608C412.01 67.608 412.011 67.608 412.011 67.608C412.011 67.608 412.011 67.608 412.011 67.608C412.012 67.608 412.012 67.608 412.012 67.608C412.012 67.608 412.012 67.608 412.013 67.608C412.013 67.608 412.013 67.608 412.013 67.608C412.013 67.608 412.013 67.608 412.014 67.608C412.014 67.608 412.014 67.608 412.014 67.608C412.014 67.608 412.015 67.608 412.015 67.608C412.015 67.608 412.015 67.608 412.015 67.608C412.015 67.608 412.016 67.608 412.016 67.608C412.016 67.608 412.016 67.608 412.016 67.608C412.017 67.608 412.017 67.608 412.017 67.608C412.017 67.608 412.017 67.608 412.018 67.608C412.018 67.608 412.018 67.608 412.018 67.608C412.018 67.608 412.018 67.608 412.019 67.608C412.019 67.608 412.019 67.608 412.019 67.608C412.019 67.608 412.02 67.608 412.02 67.608C412.02 67.608 412.02 67.608 412.02 67.608C412.02 67.608 412.021 67.608 412.021 67.608C412.021 67.608 412.021 67.608 412.021 67.608C412.022 67.608 412.022 67.608 412.022 67.608C412.022 67.608 412.022 67.608 412.023 67.608C412.023 67.608 412.023 67.608 412.023 67.608C412.023 67.608 412.023 67.608 412.024 67.608C412.024 67.608 412.024 67.608 412.024 67.608C412.024 67.608 412.025 67.608 412.025 67.608C412.025 67.608 412.025 67.608 412.025 67.608C412.025 67.608 412.026 67.608 412.026 67.608C412.026 67.608 412.026 67.608 412.026 67.608C412.027 67.608 412.027 67.608 412.027 67.608C412.027 67.608 412.027 67.608 412.027 67.608C412.028 67.608 412.028 67.608 412.028 67.608C412.028 67.608 412.028 67.608 412.029 67.608C412.029 67.608 412.029 67.608 412.029 67.608C412.029 67.608 412.029 67.608 412.03 67.608C412.03 67.608 412.03 67.608 412.03 67.608C412.03 67.608 412.03 67.608 412.031 67.608C412.031 67.608 412.031 67.608 412.031 67.608C412.031 67.608 412.032 67.608 412.032 67.608C412.032 67.608 412.032 67.608 412.032 67.608C412.032 67.608 412.033 67.608 412.033 67.608C412.033 67.608 412.033 67.608 412.033 67.608C412.034 67.608 412.034 67.608 412.034 67.608C412.034 67.608 412.034 67.608 412.034 67.608C412.035 67.608 412.035 67.608 412.035 67.608C412.035 67.608 412.035 67.608 412.035 67.608C412.036 67.608 412.036 67.608 412.036 67.608C412.036 67.608 412.036 67.608 412.037 67.608C412.037 67.608 412.037 67.608 412.037 67.608C412.037 67.608 412.037 67.608 412.038 67.608C412.038 67.608 412.038 67.608 412.038 67.608C412.038 67.608 412.038 67.608 412.039 67.608C412.039 67.608 412.039 67.608 412.039 67.608C412.039 67.608 412.04 67.608 412.04 67.608C412.04 67.608 412.04 67.608 412.04 67.608C412.04 67.608 412.041 67.608 412.041 67.608C412.041 67.608 412.041 67.608 412.041 67.608C412.041 67.608 412.042 67.608 412.042 67.608C412.042 67.608 412.042 67.608 412.042 67.608C412.043 67.608 412.043 67.608 412.043 67.608C412.043 67.608 412.043 67.608 412.043 67.608C412.044 67.608 412.044 67.608 412.044 67.608C412.044 67.608 412.044 67.608 412.044 67.608C412.045 67.608 412.045 67.608 412.045 67.608C412.045 67.608 412.045 67.608 412.045 67.608C412.046 67.608 412.046 67.608 412.046 67.608C412.046 67.608 412.046 67.608 412.046 67.608C412.047 67.608 412.047 67.608 412.047 67.608C412.047 67.608 412.047 67.608 412.048 67.608C412.048 67.608 412.048 67.608 412.048 67.608C412.048 67.608 412.048 67.608 412.049 67.608C412.049 67.608 412.049 67.608 412.049 67.608C412.049 67.608 412.049 67.608 412.05 67.608C412.05 67.608 412.05 67.608 412.05 67.608C412.05 67.608 412.05 67.608 412.051 67.608C412.051 67.608 412.051 67.608 412.051 67.608C412.051 67.608 412.051 67.608 412.052 67.608C412.052 67.608 412.052 67.608 412.052 67.608C412.052 67.608 412.052 67.608 412.053 67.608C412.053 67.608 412.053 67.608 412.053 67.608C412.053 67.608 412.053 67.608 412.054 67.608C412.054 67.608 412.054 67.608 412.054 67.608C412.054 67.608 412.054 67.608 412.055 67.608C412.055 67.608 412.055 67.608 412.055 67.608C412.055 67.608 412.055 67.608 412.056 67.608C412.056 67.608 412.056 67.608 412.056 67.608C412.056 67.608 412.056 67.608 412.057 67.608C412.057 67.608 412.057 67.608 412.057 67.608C412.057 67.608 412.058 67.608 412.058 67.608C412.058 67.608 412.058 67.608 412.058 67.608C412.058 67.608 412.059 67.608 412.059 67.608C412.059 67.608 412.059 67.608 412.059 67.608C412.059 67.608 412.059 67.608 412.06 67.608C412.06 67.608 412.06 67.608 412.06 67.608C412.06 67.608 412.06 67.608 412.061 67.608C412.061 67.608 412.061 67.608 412.061 67.608C412.061 67.608 412.061 67.608 412.062 67.608C412.062 67.608 412.062 67.608 412.062 67.608C412.062 67.608 412.062 67.608 412.063 67.608C412.063 67.608 412.063 67.608 412.063 67.608C412.063 67.608 412.063 67.608 412.064 67.608C412.064 67.608 412.064 67.608 412.064 67.608C412.064 67.608 412.064 67.608 412.065 67.608C412.065 67.608 412.065 67.608 412.065 67.608C412.065 67.608 412.065 67.608 412.066 67.608C412.066 67.608 412.066 67.608 412.066 67.608C412.066 67.608 412.066 67.608 412.067 67.608C412.067 67.608 412.067 67.608 412.067 67.608C412.067 67.608 412.067 67.608 412.068 67.608C412.068 67.608 412.068 67.608 412.068 67.608C412.068 67.608 412.068 67.608 412.068 67.608C412.069 67.608 412.069 67.608 412.069 67.608C412.069 67.608 412.069 67.608 412.069 67.608C412.07 67.608 412.07 67.608 412.07 67.608C412.07 67.608 412.07 67.608 412.07 67.608C412.071 67.608 412.071 67.608 412.071 67.608C412.071 67.608 412.071 67.608 412.071 67.608C412.072 67.608 412.072 67.608 412.072 67.608C412.072 67.608 412.072 67.608 412.072 67.608C412.073 67.608 412.073 67.608 412.073 67.608C412.073 67.608 412.073 67.608 412.073 67.608C412.073 67.608 412.074 67.608 412.074 67.608C412.074 67.608 412.074 67.608 412.074 67.608C412.074 67.608 412.075 67.608 412.075 67.608C412.075 67.608 412.075 67.608 412.075 67.608C412.075 67.608 412.076 67.608 412.076 67.608C412.076 67.608 412.076 67.608 412.076 67.608C412.076 67.608 412.076 67.608 412.077 67.608C412.077 67.608 412.077 67.608 412.077 67.608C412.077 67.608 412.077 67.608 412.078 67.608C412.078 67.608 412.078 67.608 412.078 67.608C412.078 67.608 412.078 67.608 412.079 67.608C412.079 67.608 412.079 67.608 412.079 67.608C412.079 67.608 412.079 67.608 412.079 67.608C412.08 67.608 412.08 67.608 412.08 67.608C412.08 67.608 412.08 67.608 412.08 67.608C412.081 67.608 412.081 67.608 412.081 67.608C412.081 67.608 412.081 67.608 412.081 67.608C412.081 67.608 412.082 67.608 412.082 67.608C412.082 67.608 412.082 67.608 412.082 67.608C412.082 67.608 412.083 67.608 412.083 67.608C412.083 67.608 412.083 67.608 412.083 67.608C412.083 67.608 412.083 67.608 412.084 67.608C412.084 67.608 412.084 67.608 412.084 67.608C412.084 67.608 412.084 67.608 412.085 67.608C412.085 67.608 412.085 67.608 412.085 67.608C412.085 67.608 412.085 67.608 412.085 67.608C412.086 67.608 412.086 67.608 412.086 67.608C412.086 67.608 412.086 67.608 412.086 67.608C412.087 67.608 412.087 67.608 412.087 67.608C412.087 67.608 412.087 67.608 412.087 67.608C412.087 67.608 412.088 67.608 412.088 67.608C412.088 67.608 412.088 67.608 412.088 67.608C412.088 67.608 412.088 67.608 412.089 67.608C412.089 67.608 412.089 67.608 412.089 67.608C412.089 67.608 412.089 67.608 412.09 67.608C412.09 67.608 412.09 67.608 412.09 67.608C412.09 67.608 412.09 67.608 412.09 67.608C412.091 67.608 412.091 67.608 412.091 67.608C412.091 67.608 412.091 67.608 412.091 67.608C412.091 67.608 412.092 67.608 412.092 67.608C412.092 67.608 412.092 67.608 412.092 67.608C412.092 67.608 412.093 67.608 412.093 67.608C412.093 67.608 412.093 67.608 412.093 67.608C412.093 67.608 412.093 67.608 412.094 67.608C412.094 67.608 412.094 67.608 412.094 67.608C412.094 67.608 412.094 67.608 412.094 67.608C412.095 67.608 412.095 67.608 412.095 67.608C412.095 67.608 412.095 67.608 412.095 67.608C412.095 67.608 412.096 67.608 412.096 67.608C412.096 67.608 412.096 67.608 412.096 67.608C412.096 67.608 412.097 67.608 412.097 67.608C412.097 67.608 412.097 67.608 412.097 67.608C412.097 67.608 412.097 67.608 412.098 67.608C412.098 67.608 412.098 67.608 412.098 67.608C412.098 67.608 412.098 67.608 412.098 67.608C412.099 67.608 412.099 67.608 412.099 67.608C412.099 67.608 412.099 67.608 412.099 67.608C412.099 67.608 412.1 67.608 412.1 67.608C412.1 67.608 412.1 67.608 412.1 67.608C412.1 67.608 412.1 67.608 412.101 67.608C412.101 67.608 412.101 67.608 412.101 67.608C412.101 67.608 412.101 67.608 412.101 67.608C412.102 67.608 412.102 67.608 412.102 67.608C412.102 67.608 412.102 67.608 412.102 67.608C412.102 67.608 412.103 67.608 412.103 67.608C412.103 67.608 412.103 67.608 412.103 67.608C412.103 67.608 412.103 67.608 412.104 67.608C412.104 67.608 412.104 67.608 412.104 67.608C412.104 67.608 412.104 67.608 412.104 67.608C412.105 67.608 412.105 67.608 412.105 67.608C412.105 67.608 412.105 67.608 412.105 67.608C412.105 67.608 412.106 67.608 412.106 67.608C412.106 67.608 412.106 67.608 412.106 67.608C412.106 67.608 412.106 67.608 412.107 67.608C412.107 67.608 412.107 67.608 412.107 67.608C412.107 67.608 412.107 67.608 412.107 67.608C412.108 67.608 412.108 67.608 412.108 67.608C412.108 67.608 412.108 67.608 412.108 67.608C412.108 67.608 412.109 67.608 412.109 67.608C412.109 67.608 412.109 67.608 412.109 67.608C412.109 67.608 412.109 67.608 412.11 67.608C412.11 67.608 412.11 67.608 412.11 67.608C412.11 67.608 412.11 67.608 412.11 67.608C412.11 67.608 412.111 67.608 412.111 67.608C412.111 67.608 412.111 67.608 412.111 67.608C412.111 67.608 412.111 67.608 412.112 67.608C412.112 67.608 412.112 67.608 412.112 67.608C412.112 67.608 412.112 67.608 412.112 67.608C412.113 67.608 412.113 67.608 412.113 67.608C412.113 67.608 412.113 67.608 412.113 67.608C412.113 67.608 412.114 67.608 412.114 67.608C412.114 67.608 412.114 67.608 412.114 67.608C412.114 67.608 412.114 67.608 412.114 67.608C412.115 67.608 412.115 67.608 412.115 67.608C412.115 67.608 412.115 67.608 412.115 67.608C412.115 67.608 412.116 67.608 412.116 67.608C412.116 67.608 412.116 67.608 412.116 67.608C412.116 67.608 412.116 67.608 412.117 67.608C412.117 67.608 412.117 67.608 412.117 67.608C412.117 67.608 412.117 67.608 412.117 67.608C412.117 67.608 412.118 67.608 412.118 67.608C412.118 67.608 412.118 67.608 412.118 67.608C412.118 67.608 412.118 67.608 412.119 67.608C412.119 67.608 412.119 67.608 412.119 67.608C412.119 67.608 412.119 67.608 412.119 67.608C412.119 67.608 412.12 67.608 412.12 67.608C412.12 67.608 412.12 67.608 412.12 67.608C412.12 67.608 412.12 67.608 412.121 67.608C412.121 67.608 412.121 67.608 412.121 67.608C412.121 67.608 412.121 67.608 412.121 67.608C412.121 67.608 412.122 67.608 412.122 67.608C412.122 67.608 412.122 67.608 412.122 67.608C412.122 67.608 412.122 67.608 412.123 67.608C412.123 67.608 412.123 67.608 412.123 67.608C412.123 67.608 412.123 67.608 412.123 67.608C412.123 67.608 412.124 67.608 412.124 67.608C412.124 67.608 412.124 67.608 412.124 67.608C412.124 67.608 412.124 67.608 412.124 67.608C412.125 67.608 412.125 67.608 412.125 67.608C412.125 67.608 412.125 67.608 412.125 67.608C412.125 67.608 412.126 67.608 412.126 67.608C412.126 67.608 412.126 67.608 412.126 67.608C412.126 67.608 412.126 67.608 412.126 67.608C412.127 67.608 412.127 67.608 412.127 67.608C412.127 67.608 412.127 67.608 412.127 67.608C412.127 67.608 412.127 67.608 412.128 67.608C412.128 67.608 412.128 67.608 412.128 67.608C412.128 67.608 412.128 67.608 412.128 67.608C412.128 67.608 412.129 67.608 412.129 67.608C412.129 67.608 412.129 67.608 412.129 67.608C412.129 67.608 412.129 67.608 412.129 67.608C412.13 67.608 412.13 67.608 412.13 67.608C412.13 67.608 412.13 67.608 412.13 67.608C412.13 67.608 412.13 67.608 412.131 67.608C412.131 67.608 412.131 67.608 412.131 67.608C412.131 67.608 412.131 67.608 412.131 67.608C412.131 67.608 412.132 67.608 412.132 67.608C412.132 67.608 412.132 67.608 412.132 67.608C412.132 67.608 412.132 67.608 412.133 67.608V61.608C412.132 61.608 412.132 61.608 412.132 61.608C412.132 61.608 412.132 61.608 412.132 61.608C412.132 61.608 412.131 61.608 412.131 61.608C412.131 61.608 412.131 61.608 412.131 61.608C412.131 61.608 412.131 61.608 412.131 61.608C412.13 61.608 412.13 61.608 412.13 61.608C412.13 61.608 412.13 61.608 412.13 61.608C412.13 61.608 412.13 61.608 412.129 61.608C412.129 61.608 412.129 61.608 412.129 61.608C412.129 61.608 412.129 61.608 412.129 61.608C412.129 61.608 412.128 61.608 412.128 61.608C412.128 61.608 412.128 61.608 412.128 61.608C412.128 61.608 412.128 61.608 412.128 61.608C412.127 61.608 412.127 61.608 412.127 61.608C412.127 61.608 412.127 61.608 412.127 61.608C412.127 61.608 412.127 61.608 412.126 61.608C412.126 61.608 412.126 61.608 412.126 61.608C412.126 61.608 412.126 61.608 412.126 61.608C412.126 61.608 412.125 61.608 412.125 61.608C412.125 61.608 412.125 61.608 412.125 61.608C412.125 61.608 412.125 61.608 412.124 61.608C412.124 61.608 412.124 61.608 412.124 61.608C412.124 61.608 412.124 61.608 412.124 61.608C412.124 61.608 412.123 61.608 412.123 61.608C412.123 61.608 412.123 61.608 412.123 61.608C412.123 61.608 412.123 61.608 412.123 61.608C412.122 61.608 412.122 61.608 412.122 61.608C412.122 61.608 412.122 61.608 412.122 61.608C412.122 61.608 412.121 61.608 412.121 61.608C412.121 61.608 412.121 61.608 412.121 61.608C412.121 61.608 412.121 61.608 412.121 61.608C412.12 61.608 412.12 61.608 412.12 61.608C412.12 61.608 412.12 61.608 412.12 61.608C412.12 61.608 412.119 61.608 412.119 61.608C412.119 61.608 412.119 61.608 412.119 61.608C412.119 61.608 412.119 61.608 412.119 61.608C412.118 61.608 412.118 61.608 412.118 61.608C412.118 61.608 412.118 61.608 412.118 61.608C412.118 61.608 412.117 61.608 412.117 61.608C412.117 61.608 412.117 61.608 412.117 61.608C412.117 61.608 412.117 61.608 412.117 61.608C412.116 61.608 412.116 61.608 412.116 61.608C412.116 61.608 412.116 61.608 412.116 61.608C412.116 61.608 412.115 61.608 412.115 61.608C412.115 61.608 412.115 61.608 412.115 61.608C412.115 61.608 412.115 61.608 412.114 61.608C412.114 61.608 412.114 61.608 412.114 61.608C412.114 61.608 412.114 61.608 412.114 61.608C412.114 61.608 412.113 61.608 412.113 61.608C412.113 61.608 412.113 61.608 412.113 61.608C412.113 61.608 412.113 61.608 412.112 61.608C412.112 61.608 412.112 61.608 412.112 61.608C412.112 61.608 412.112 61.608 412.112 61.608C412.111 61.608 412.111 61.608 412.111 61.608C412.111 61.608 412.111 61.608 412.111 61.608C412.111 61.608 412.11 61.608 412.11 61.608C412.11 61.608 412.11 61.608 412.11 61.608C412.11 61.608 412.11 61.608 412.11 61.608C412.109 61.608 412.109 61.608 412.109 61.608C412.109 61.608 412.109 61.608 412.109 61.608C412.109 61.608 412.108 61.608 412.108 61.608C412.108 61.608 412.108 61.608 412.108 61.608C412.108 61.608 412.108 61.608 412.107 61.608C412.107 61.608 412.107 61.608 412.107 61.608C412.107 61.608 412.107 61.608 412.107 61.608C412.106 61.608 412.106 61.608 412.106 61.608C412.106 61.608 412.106 61.608 412.106 61.608C412.106 61.608 412.105 61.608 412.105 61.608C412.105 61.608 412.105 61.608 412.105 61.608C412.105 61.608 412.105 61.608 412.104 61.608C412.104 61.608 412.104 61.608 412.104 61.608C412.104 61.608 412.104 61.608 412.104 61.608C412.103 61.608 412.103 61.608 412.103 61.608C412.103 61.608 412.103 61.608 412.103 61.608C412.103 61.608 412.102 61.608 412.102 61.608C412.102 61.608 412.102 61.608 412.102 61.608C412.102 61.608 412.102 61.608 412.101 61.608C412.101 61.608 412.101 61.608 412.101 61.608C412.101 61.608 412.101 61.608 412.101 61.608C412.1 61.608 412.1 61.608 412.1 61.608C412.1 61.608 412.1 61.608 412.1 61.608C412.1 61.608 412.099 61.608 412.099 61.608C412.099 61.608 412.099 61.608 412.099 61.608C412.099 61.608 412.099 61.608 412.098 61.608C412.098 61.608 412.098 61.608 412.098 61.608C412.098 61.608 412.098 61.608 412.098 61.608C412.097 61.608 412.097 61.608 412.097 61.608C412.097 61.608 412.097 61.608 412.097 61.608C412.097 61.608 412.096 61.608 412.096 61.608C412.096 61.608 412.096 61.608 412.096 61.608C412.096 61.608 412.095 61.608 412.095 61.608C412.095 61.608 412.095 61.608 412.095 61.608C412.095 61.608 412.095 61.608 412.094 61.608C412.094 61.608 412.094 61.608 412.094 61.608C412.094 61.608 412.094 61.608 412.094 61.608C412.093 61.608 412.093 61.608 412.093 61.608C412.093 61.608 412.093 61.608 412.093 61.608C412.093 61.608 412.092 61.608 412.092 61.608C412.092 61.608 412.092 61.608 412.092 61.608C412.092 61.608 412.091 61.608 412.091 61.608C412.091 61.608 412.091 61.608 412.091 61.608C412.091 61.608 412.091 61.608 412.09 61.608C412.09 61.608 412.09 61.608 412.09 61.608C412.09 61.608 412.09 61.608 412.09 61.608C412.089 61.608 412.089 61.608 412.089 61.608C412.089 61.608 412.089 61.608 412.089 61.608C412.088 61.608 412.088 61.608 412.088 61.608C412.088 61.608 412.088 61.608 412.088 61.608C412.088 61.608 412.087 61.608 412.087 61.608C412.087 61.608 412.087 61.608 412.087 61.608C412.087 61.608 412.087 61.608 412.086 61.608C412.086 61.608 412.086 61.608 412.086 61.608C412.086 61.608 412.086 61.608 412.085 61.608C412.085 61.608 412.085 61.608 412.085 61.608C412.085 61.608 412.085 61.608 412.085 61.608C412.084 61.608 412.084 61.608 412.084 61.608C412.084 61.608 412.084 61.608 412.084 61.608C412.083 61.608 412.083 61.608 412.083 61.608C412.083 61.608 412.083 61.608 412.083 61.608C412.083 61.608 412.082 61.608 412.082 61.608C412.082 61.608 412.082 61.608 412.082 61.608C412.082 61.608 412.081 61.608 412.081 61.608C412.081 61.608 412.081 61.608 412.081 61.608C412.081 61.608 412.081 61.608 412.08 61.608C412.08 61.608 412.08 61.608 412.08 61.608C412.08 61.608 412.08 61.608 412.079 61.608C412.079 61.608 412.079 61.608 412.079 61.608C412.079 61.608 412.079 61.608 412.079 61.608C412.078 61.608 412.078 61.608 412.078 61.608C412.078 61.608 412.078 61.608 412.078 61.608C412.077 61.608 412.077 61.608 412.077 61.608C412.077 61.608 412.077 61.608 412.077 61.608C412.076 61.608 412.076 61.608 412.076 61.608C412.076 61.608 412.076 61.608 412.076 61.608C412.076 61.608 412.075 61.608 412.075 61.608C412.075 61.608 412.075 61.608 412.075 61.608C412.075 61.608 412.074 61.608 412.074 61.608C412.074 61.608 412.074 61.608 412.074 61.608C412.074 61.608 412.073 61.608 412.073 61.608C412.073 61.608 412.073 61.608 412.073 61.608C412.073 61.608 412.073 61.608 412.072 61.608C412.072 61.608 412.072 61.608 412.072 61.608C412.072 61.608 412.072 61.608 412.071 61.608C412.071 61.608 412.071 61.608 412.071 61.608C412.071 61.608 412.071 61.608 412.07 61.608C412.07 61.608 412.07 61.608 412.07 61.608C412.07 61.608 412.07 61.608 412.069 61.608C412.069 61.608 412.069 61.608 412.069 61.608C412.069 61.608 412.069 61.608 412.068 61.608C412.068 61.608 412.068 61.608 412.068 61.608C412.068 61.608 412.068 61.608 412.068 61.608C412.067 61.608 412.067 61.608 412.067 61.608C412.067 61.608 412.067 61.608 412.067 61.608C412.066 61.608 412.066 61.608 412.066 61.608C412.066 61.608 412.066 61.608 412.066 61.608C412.065 61.608 412.065 61.608 412.065 61.608C412.065 61.608 412.065 61.608 412.065 61.608C412.064 61.608 412.064 61.608 412.064 61.608C412.064 61.608 412.064 61.608 412.064 61.608C412.063 61.608 412.063 61.608 412.063 61.608C412.063 61.608 412.063 61.608 412.063 61.608C412.062 61.608 412.062 61.608 412.062 61.608C412.062 61.608 412.062 61.608 412.062 61.608C412.061 61.608 412.061 61.608 412.061 61.608C412.061 61.608 412.061 61.608 412.061 61.608C412.06 61.608 412.06 61.608 412.06 61.608C412.06 61.608 412.06 61.608 412.06 61.608C412.059 61.608 412.059 61.608 412.059 61.608C412.059 61.608 412.059 61.608 412.059 61.608C412.059 61.608 412.058 61.608 412.058 61.608C412.058 61.608 412.058 61.608 412.058 61.608C412.058 61.608 412.057 61.608 412.057 61.608C412.057 61.608 412.057 61.608 412.057 61.608C412.056 61.608 412.056 61.608 412.056 61.608C412.056 61.608 412.056 61.608 412.056 61.608C412.055 61.608 412.055 61.608 412.055 61.608C412.055 61.608 412.055 61.608 412.055 61.608C412.054 61.608 412.054 61.608 412.054 61.608C412.054 61.608 412.054 61.608 412.054 61.608C412.053 61.608 412.053 61.608 412.053 61.608C412.053 61.608 412.053 61.608 412.053 61.608C412.052 61.608 412.052 61.608 412.052 61.608C412.052 61.608 412.052 61.608 412.052 61.608C412.051 61.608 412.051 61.608 412.051 61.608C412.051 61.608 412.051 61.608 412.051 61.608C412.05 61.608 412.05 61.608 412.05 61.608C412.05 61.608 412.05 61.608 412.05 61.608C412.049 61.608 412.049 61.608 412.049 61.608C412.049 61.608 412.049 61.608 412.049 61.608C412.048 61.608 412.048 61.608 412.048 61.608C412.048 61.608 412.048 61.608 412.048 61.608C412.047 61.608 412.047 61.608 412.047 61.608C412.047 61.608 412.047 61.608 412.046 61.608C412.046 61.608 412.046 61.608 412.046 61.608C412.046 61.608 412.046 61.608 412.045 61.608C412.045 61.608 412.045 61.608 412.045 61.608C412.045 61.608 412.045 61.608 412.044 61.608C412.044 61.608 412.044 61.608 412.044 61.608C412.044 61.608 412.044 61.608 412.043 61.608C412.043 61.608 412.043 61.608 412.043 61.608C412.043 61.608 412.043 61.608 412.042 61.608C412.042 61.608 412.042 61.608 412.042 61.608C412.042 61.608 412.041 61.608 412.041 61.608C412.041 61.608 412.041 61.608 412.041 61.608C412.041 61.608 412.04 61.608 412.04 61.608C412.04 61.608 412.04 61.608 412.04 61.608C412.04 61.608 412.039 61.608 412.039 61.608C412.039 61.608 412.039 61.608 412.039 61.608C412.038 61.608 412.038 61.608 412.038 61.608C412.038 61.608 412.038 61.608 412.038 61.608C412.037 61.608 412.037 61.608 412.037 61.608C412.037 61.608 412.037 61.608 412.037 61.608C412.036 61.608 412.036 61.608 412.036 61.608C412.036 61.608 412.036 61.608 412.035 61.608C412.035 61.608 412.035 61.608 412.035 61.608C412.035 61.608 412.035 61.608 412.034 61.608C412.034 61.608 412.034 61.608 412.034 61.608C412.034 61.608 412.034 61.608 412.033 61.608C412.033 61.608 412.033 61.608 412.033 61.608C412.033 61.608 412.032 61.608 412.032 61.608C412.032 61.608 412.032 61.608 412.032 61.608C412.032 61.608 412.031 61.608 412.031 61.608C412.031 61.608 412.031 61.608 412.031 61.608C412.03 61.608 412.03 61.608 412.03 61.608C412.03 61.608 412.03 61.608 412.03 61.608C412.029 61.608 412.029 61.608 412.029 61.608C412.029 61.608 412.029 61.608 412.029 61.608C412.028 61.608 412.028 61.608 412.028 61.608C412.028 61.608 412.028 61.608 412.027 61.608C412.027 61.608 412.027 61.608 412.027 61.608C412.027 61.608 412.027 61.608 412.026 61.608C412.026 61.608 412.026 61.608 412.026 61.608C412.026 61.608 412.025 61.608 412.025 61.608C412.025 61.608 412.025 61.608 412.025 61.608C412.025 61.608 412.024 61.608 412.024 61.608C412.024 61.608 412.024 61.608 412.024 61.608C412.023 61.608 412.023 61.608 412.023 61.608C412.023 61.608 412.023 61.608 412.023 61.608C412.022 61.608 412.022 61.608 412.022 61.608C412.022 61.608 412.022 61.608 412.021 61.608C412.021 61.608 412.021 61.608 412.021 61.608C412.021 61.608 412.02 61.608 412.02 61.608C412.02 61.608 412.02 61.608 412.02 61.608C412.02 61.608 412.019 61.608 412.019 61.608C412.019 61.608 412.019 61.608 412.019 61.608C412.018 61.608 412.018 61.608 412.018 61.608C412.018 61.608 412.018 61.608 412.018 61.608C412.017 61.608 412.017 61.608 412.017 61.608C412.017 61.608 412.017 61.608 412.016 61.608C412.016 61.608 412.016 61.608 412.016 61.608C412.016 61.608 412.015 61.608 412.015 61.608C412.015 61.608 412.015 61.608 412.015 61.608C412.015 61.608 412.014 61.608 412.014 61.608C412.014 61.608 412.014 61.608 412.014 61.608C412.013 61.608 412.013 61.608 412.013 61.608C412.013 61.608 412.013 61.608 412.013 61.608C412.012 61.608 412.012 61.608 412.012 61.608C412.012 61.608 412.012 61.608 412.011 61.608C412.011 61.608 412.011 61.608 412.011 61.608C412.011 61.608 412.01 61.608 412.01 61.608C412.01 61.608 412.01 61.608 412.01 61.608C412.009 61.608 412.009 61.608 412.009 61.608C412.009 61.608 412.009 61.608 412.009 61.608C412.008 61.608 412.008 61.608 412.008 61.608C412.008 61.608 412.008 61.608 412.007 61.608C412.007 61.608 412.007 61.608 412.007 61.608C412.007 61.608 412.006 61.608 412.006 61.608C412.006 61.608 412.006 61.608 412.006 61.608C412.006 61.608 412.005 61.608 412.005 61.608C412.005 61.608 412.005 61.608 412.005 61.608C412.004 61.608 412.004 61.608 412.004 61.608C412.004 61.608 412.004 61.608 412.003 61.608C412.003 61.608 412.003 61.608 412.003 61.608C412.003 61.608 412.002 61.608 412.002 61.608C412.002 61.608 412.002 61.608 412.002 61.608C412.001 61.608 412.001 61.608 412.001 61.608C412.001 61.608 412.001 61.608 412.001 61.608C412 61.608 412 61.608 412 61.608C412 61.608 412 61.608 411.999 61.608C411.999 61.608 411.999 61.608 411.999 61.608C411.999 61.608 411.998 61.608 411.998 61.608C411.998 61.608 411.998 61.608 411.998 61.608C411.997 61.608 411.997 61.608 411.997 61.608C411.997 61.608 411.997 61.608 411.996 61.608C411.996 61.608 411.996 61.608 411.996 61.608C411.996 61.608 411.995 61.608 411.995 61.608C411.995 61.608 411.995 61.608 411.995 61.608C411.995 61.608 411.994 61.608 411.994 61.608C411.994 61.608 411.994 61.608 411.994 61.608C411.993 61.608 411.993 61.608 411.993 61.608C411.993 61.608 411.993 61.608 411.992 61.608C411.992 61.608 411.992 61.608 411.992 61.608C411.992 61.608 411.991 61.608 411.991 61.608C411.991 61.608 411.991 61.608 411.991 61.608C411.99 61.608 411.99 61.608 411.99 61.608C411.99 61.608 411.99 61.608 411.989 61.608C411.989 61.608 411.989 61.608 411.989 61.608C411.989 61.608 411.988 61.608 411.988 61.608C411.988 61.608 411.988 61.608 411.988 61.608C411.987 61.608 411.987 61.608 411.987 61.608C411.987 61.608 411.987 61.608 411.986 61.608C411.986 61.608 411.986 61.608 411.986 61.608C411.986 61.608 411.985 61.608 411.985 61.608C411.985 61.608 411.985 61.608 411.985 61.608C411.984 61.608 411.984 61.608 411.984 61.608C411.984 61.608 411.984 61.608 411.983 61.608C411.983 61.608 411.983 61.608 411.983 61.608C411.983 61.608 411.982 61.608 411.982 61.608C411.982 61.608 411.982 61.608 411.982 61.608C411.981 61.608 411.981 61.608 411.981 61.608C411.981 61.608 411.981 61.608 411.98 61.608C411.98 61.608 411.98 61.608 411.98 61.608C411.98 61.608 411.979 61.608 411.979 61.608C411.979 61.608 411.979 61.608 411.979 61.608C411.978 61.608 411.978 61.608 411.978 61.608C411.978 61.608 411.978 61.608 411.977 61.608C411.977 61.608 411.977 61.608 411.977 61.608C411.977 61.608 411.976 61.608 411.976 61.608C411.976 61.608 411.976 61.608 411.976 61.608C411.975 61.608 411.975 61.608 411.975 61.608C411.975 61.608 411.975 61.608 411.974 61.608C411.974 61.608 411.974 61.608 411.974 61.608C411.974 61.608 411.973 61.608 411.973 61.608C411.973 61.608 411.973 61.608 411.973 61.608C411.972 61.608 411.972 61.608 411.972 61.608C411.972 61.608 411.972 61.608 411.971 61.608C411.971 61.608 411.971 61.608 411.971 61.608C411.971 61.608 411.97 61.608 411.97 61.608C411.97 61.608 411.97 61.608 411.969 61.608C411.969 61.608 411.969 61.608 411.969 61.608C411.969 61.608 411.968 61.608 411.968 61.608C411.968 61.608 411.968 61.608 411.968 61.608C411.967 61.608 411.967 61.608 411.967 61.608C411.967 61.608 411.967 61.608 411.966 61.608C411.966 61.608 411.966 61.608 411.966 61.608C411.966 61.608 411.965 61.608 411.965 61.608C411.965 61.608 411.965 61.608 411.965 61.608C411.964 61.608 411.964 61.608 411.964 61.608C411.964 61.608 411.963 61.608 411.963 61.608C411.963 61.608 411.963 61.608 411.963 61.608C411.962 61.608 411.962 61.608 411.962 61.608C411.962 61.608 411.962 61.608 411.961 61.608C411.961 61.608 411.961 61.608 411.961 61.608C411.961 61.608 411.96 61.608 411.96 61.608C411.96 61.608 411.96 61.608 411.96 61.608C411.959 61.608 411.959 61.608 411.959 61.608C411.959 61.608 411.958 61.608 411.958 61.608C411.958 61.608 411.958 61.608 411.958 61.608C411.957 61.608 411.957 61.608 411.957 61.608C411.957 61.608 411.957 61.608 411.956 61.608C411.956 61.608 411.956 61.608 411.956 61.608C411.956 61.608 411.955 61.608 411.955 61.608C411.955 61.608 411.955 61.608 411.954 61.608C411.954 61.608 411.954 61.608 411.954 61.608C411.954 61.608 411.953 61.608 411.953 61.608C411.953 61.608 411.953 61.608 411.953 61.608C411.952 61.608 411.952 61.608 411.952 61.608C411.952 61.608 411.952 61.608 411.951 61.608C411.951 61.608 411.951 61.608 411.951 61.608C411.95 61.608 411.95 61.608 411.95 61.608C411.95 61.608 411.95 61.608 411.949 61.608C411.949 61.608 411.949 61.608 411.949 61.608C411.949 61.608 411.948 61.608 411.948 61.608C411.948 61.608 411.948 61.608 411.947 61.608C411.947 61.608 411.947 61.608 411.947 61.608C411.947 61.608 411.946 61.608 411.946 61.608C411.946 61.608 411.946 61.608 411.946 61.608C411.945 61.608 411.945 61.608 411.945 61.608C411.945 61.608 411.944 61.608 411.944 61.608C411.944 61.608 411.944 61.608 411.944 61.608C411.943 61.608 411.943 61.608 411.943 61.608C411.943 61.608 411.943 61.608 411.942 61.608C411.942 61.608 411.942 61.608 411.942 61.608C411.941 61.608 411.941 61.608 411.941 61.608C411.941 61.608 411.941 61.608 411.94 61.608C411.94 61.608 411.94 61.608 411.94 61.608C411.94 61.608 411.939 61.608 411.939 61.608C411.939 61.608 411.939 61.608 411.938 61.608C411.938 61.608 411.938 61.608 411.938 61.608C411.938 61.608 411.937 61.608 411.937 61.608C411.937 61.608 411.937 61.608 411.936 61.608C411.936 61.608 411.936 61.608 411.936 61.608C411.936 61.608 411.935 61.608 411.935 61.608C411.935 61.608 411.935 61.608 411.935 61.608C411.934 61.608 411.934 61.608 411.934 61.608C411.934 61.608 411.933 61.608 411.933 61.608C411.933 61.608 411.933 61.608 411.933 61.608C411.932 61.608 411.932 61.608 411.932 61.608C411.932 61.608 411.931 61.608 411.931 61.608C411.931 61.608 411.931 61.608 411.931 61.608C411.93 61.608 411.93 61.608 411.93 61.608C411.93 61.608 411.929 61.608 411.929 61.608C411.929 61.608 411.929 61.608 411.929 61.608C411.928 61.608 411.928 61.608 411.928 61.608C411.928 61.608 411.927 61.608 411.927 61.608C411.927 61.608 411.927 61.608 411.927 61.608C411.926 61.608 411.926 61.608 411.926 61.608C411.926 61.608 411.925 61.608 411.925 61.608C411.925 61.608 411.925 61.608 411.925 61.608C411.924 61.608 411.924 61.608 411.924 61.608C411.924 61.608 411.923 61.608 411.923 61.608C411.923 61.608 411.923 61.608 411.923 61.608C411.922 61.608 411.922 61.608 411.922 61.608C411.922 61.608 411.921 61.608 411.921 61.608C411.921 61.608 411.921 61.608 411.921 61.608C411.92 61.608 411.92 61.608 411.92 61.608C411.92 61.608 411.919 61.608 411.919 61.608C411.919 61.608 411.919 61.608 411.919 61.608C411.918 61.608 411.918 61.608 411.918 61.608C411.918 61.608 411.917 61.608 411.917 61.608C411.917 61.608 411.917 61.608 411.917 61.608C411.916 61.608 411.916 61.608 411.916 61.608C411.916 61.608 411.915 61.608 411.915 61.608C411.915 61.608 411.915 61.608 411.914 61.608C411.914 61.608 411.914 61.608 411.914 61.608C411.914 61.608 411.913 61.608 411.913 61.608C411.913 61.608 411.913 61.608 411.912 61.608C411.912 61.608 411.912 61.608 411.912 61.608C411.912 61.608 411.911 61.608 411.911 61.608C411.911 61.608 411.911 61.608 411.91 61.608C411.91 61.608 411.91 61.608 411.91 61.608C411.909 61.608 411.909 61.608 411.909 61.608C411.909 61.608 411.909 61.608 411.908 61.608C411.908 61.608 411.908 61.608 411.908 61.608C411.907 61.608 411.907 61.608 411.907 61.608C411.907 61.608 411.907 61.608 411.906 61.608C411.906 61.608 411.906 61.608 411.906 61.608C411.905 61.608 411.905 61.608 411.905 61.608C411.905 61.608 411.904 61.608 411.904 61.608C411.904 61.608 411.904 61.608 411.904 61.608C411.903 61.608 411.903 61.608 411.903 61.608C411.903 61.608 411.902 61.608 411.902 61.608C411.902 61.608 411.902 61.608 411.901 61.608C411.901 61.608 411.901 61.608 411.901 61.608C411.901 61.608 411.9 61.608 411.9 61.608C411.9 61.608 411.9 61.608 411.899 61.608C411.899 61.608 411.899 61.608 411.899 61.608C411.898 61.608 411.898 61.608 411.898 61.608C411.898 61.608 411.898 61.608 411.897 61.608C411.897 61.608 411.897 61.608 411.897 61.608C411.896 61.608 411.896 61.608 411.896 61.608C411.896 61.608 411.895 61.608 411.895 61.608C411.895 61.608 411.895 61.608 411.895 61.608C411.894 61.608 411.894 61.608 411.894 61.608C411.894 61.608 411.893 61.608 411.893 61.608C411.893 61.608 411.893 61.608 411.892 61.608C411.892 61.608 411.892 61.608 411.892 61.608C411.891 61.608 411.891 61.608 411.891 61.608C411.891 61.608 411.891 61.608 411.89 61.608C411.89 61.608 411.89 61.608 411.89 61.608C411.889 61.608 411.889 61.608 411.889 61.608C411.889 61.608 411.888 61.608 411.888 61.608C411.888 61.608 411.888 61.608 411.887 61.608C411.887 61.608 411.887 61.608 411.887 61.608C411.887 61.608 411.886 61.608 411.886 61.608C411.886 61.608 411.886 61.608 411.885 61.608C411.885 61.608 411.885 61.608 411.885 61.608C411.884 61.608 411.884 61.608 411.884 61.608C411.884 61.608 411.883 61.608 411.883 61.608C411.883 61.608 411.883 61.608 411.883 61.608C411.882 61.608 411.882 61.608 411.882 61.608C411.882 61.608 411.881 61.608 411.881 61.608C411.881 61.608 411.881 61.608 411.88 61.608C411.88 61.608 411.88 61.608 411.88 61.608C411.879 61.608 411.879 61.608 411.879 61.608C411.879 61.608 411.878 61.608 411.878 61.608C411.878 61.608 411.878 61.608 411.878 61.608C411.877 61.608 411.877 61.608 411.877 61.608C411.877 61.608 411.876 61.608 411.876 61.608C411.876 61.608 411.876 61.608 411.875 61.608C411.875 61.608 411.875 61.608 411.875 61.608C411.874 61.608 411.874 61.608 411.874 61.608C411.874 61.608 411.873 61.608 411.873 61.608C411.873 61.608 411.873 61.608 411.872 61.608C411.872 61.608 411.872 61.608 411.872 61.608C411.872 61.608 411.871 61.608 411.871 61.608C411.871 61.608 411.871 61.608 411.87 61.608C411.87 61.608 411.87 61.608 411.87 61.608C411.869 61.608 411.869 61.608 411.869 61.608C411.869 61.608 411.868 61.608 411.868 61.608C411.868 61.608 411.868 61.608 411.867 61.608C411.867 61.608 411.867 61.608 411.867 61.608C411.866 61.608 411.866 61.608 411.866 61.608C411.866 61.608 411.865 61.608 411.865 61.608C411.865 61.608 411.865 61.608 411.864 61.608C411.864 61.608 411.864 61.608 411.864 61.608C411.864 61.608 411.863 61.608 411.863 61.608C411.863 61.608 411.863 61.608 411.862 61.608C411.862 61.608 411.862 61.608 411.862 61.608C411.861 61.608 411.861 61.608 411.861 61.608C411.861 61.608 411.86 61.608 411.86 61.608C411.86 61.608 411.86 61.608 411.859 61.608C411.859 61.608 411.859 61.608 411.859 61.608C411.858 61.608 411.858 61.608 411.858 61.608C411.858 61.608 411.857 61.608 411.857 61.608C411.857 61.608 411.857 61.608 411.856 61.608C411.856 61.608 411.856 61.608 411.856 61.608C411.855 61.608 411.855 61.608 411.855 61.608C411.855 61.608 411.854 61.608 411.854 61.608C411.854 61.608 411.854 61.608 411.853 61.608C411.853 61.608 411.853 61.608 411.853 61.608C411.852 61.608 411.852 61.608 411.852 61.608C411.852 61.608 411.851 61.608 411.851 61.608C411.851 61.608 411.851 61.608 411.85 61.608C411.85 61.608 411.85 61.608 411.85 61.608C411.849 61.608 411.849 61.608 411.849 61.608C411.849 61.608 411.848 61.608 411.848 61.608C411.848 61.608 411.848 61.608 411.847 61.608C411.847 61.608 411.847 61.608 411.847 61.608C411.846 61.608 411.846 61.608 411.846 61.608C411.846 61.608 411.846 61.608 411.845 61.608C411.845 61.608 411.845 61.608 411.845 61.608V67.608ZM411.842 67.5939C417.384 68.1323 421.884 68.7675 425.372 69.4897C428.926 70.2254 431.189 71.0053 432.425 71.7186L435.424 66.5214C433.332 65.3147 430.299 64.3826 426.589 63.6143C422.813 62.8325 418.081 62.1717 412.423 61.6221L411.842 67.5939ZM432.445 71.7301C435.312 73.3542 436.685 75.6969 436.685 79.2H442.685C442.685 73.6151 440.217 69.2378 435.404 66.5099L432.445 71.7301ZM436.685 79.2C436.685 82.055 435.56 84.7034 432.978 87.2325L437.175 91.5195C440.737 88.0326 442.685 83.897 442.685 79.2H436.685ZM432.992 87.2186C428.115 91.9314 419.811 94.632 407.333 94.632V100.632C420.454 100.632 430.646 97.8286 437.161 91.5334L432.992 87.2186ZM407.333 94.632C404.365 94.632 401.294 94.4774 398.121 94.1663L397.536 100.138C400.891 100.467 404.156 100.632 407.333 100.632V94.632ZM398.068 94.1616C395.132 93.9267 391.499 93.211 387.133 91.9634L385.484 97.7326C390.078 99.045 394.125 99.8653 397.589 100.142L398.068 94.1616ZM387.144 91.9666C382.986 90.7614 380.383 89.2416 378.925 87.6427L374.492 91.6853C377.002 94.4384 380.799 96.3746 385.473 97.7294L387.144 91.9666ZM378.893 87.6079C377.438 86.0623 376.428 83.7374 376.146 80.2989L370.167 80.7891C370.525 85.1586 371.883 88.9137 374.524 91.7201L378.893 87.6079ZM478.422 96V99H481.422V96H478.422ZM447.606 71.616L444.607 71.5269L444.607 71.5415L444.607 71.556L447.606 71.616ZM447.894 60.384H450.894V57.384H447.894V60.384ZM440.694 60.384H437.694V63.384H440.694V60.384ZM440.694 47.232V44.232H437.694V47.232H440.694ZM447.99 47.232V50.232H450.948L450.99 47.274L447.99 47.232ZM448.278 30.048V27.048H445.36L445.279 29.9647L448.278 30.048ZM470.07 30.048H473.07V27.048H470.07V30.048ZM470.07 47.232H467.07V50.232H470.07V47.232ZM478.422 47.232H481.422V44.232H478.422V47.232ZM478.422 60.384V63.384H481.422V60.384H478.422ZM470.166 60.384V57.384H467.166V60.384H470.166ZM471.414 80.64L469.476 82.9302L469.53 82.9753L469.585 83.0179L471.414 80.64ZM478.422 81.6H481.422V78.6H478.422V81.6ZM478.422 93H462.102V99H478.422V93ZM462.102 93C457.445 93 454.476 92.2066 452.75 91.0558C451.239 90.0483 450.414 88.5981 450.414 86.208H444.414C444.414 90.3459 446.037 93.7917 449.422 96.0482C452.592 98.1614 456.967 99 462.102 99V93ZM450.414 86.208C450.414 82.9106 450.478 78.0706 450.605 71.676L444.607 71.556C444.478 77.9614 444.414 82.8494 444.414 86.208H450.414ZM450.605 71.7051C450.796 65.2702 450.894 61.4652 450.894 60.384H444.894C444.894 61.3508 444.8 65.0338 444.607 71.5269L450.605 71.7051ZM447.894 57.384H440.694V63.384H447.894V57.384ZM443.694 60.384V47.232H437.694V60.384H443.694ZM440.694 50.232H447.99V44.232H440.694V50.232ZM450.99 47.274C451.118 38.1143 451.214 32.41 451.277 30.1313L445.279 29.9647C445.214 32.294 445.118 38.0457 444.99 47.19L450.99 47.274ZM448.278 33.048H470.07V27.048H448.278V33.048ZM467.07 30.048V47.232H473.07V30.048H467.07ZM470.07 50.232H478.422V44.232H470.07V50.232ZM475.422 47.232V60.384H481.422V47.232H475.422ZM478.422 57.384H470.166V63.384H478.422V57.384ZM467.166 60.384V77.184H473.166V60.384H467.166ZM467.166 77.184C467.166 79.2436 467.704 81.4302 469.476 82.9302L473.352 78.3498C473.384 78.3774 473.352 78.3737 473.3 78.2291C473.24 78.0627 473.166 77.7372 473.166 77.184H467.166ZM469.585 83.0179C471.248 84.2969 473.559 84.6 475.734 84.6V78.6C474.851 78.6 474.211 78.5296 473.769 78.4314C473.315 78.3306 473.2 78.2291 473.243 78.2621L469.585 83.0179ZM475.734 84.6H478.422V78.6H475.734V84.6ZM475.422 81.6V96H481.422V81.6H475.422ZM555.699 96V99H563.285L557.751 93.8114L555.699 96ZM532.179 96L529.263 96.7039L529.817 99H532.179V96ZM531.315 91.104L534.303 90.8324L533.918 86.5986L530.058 88.3801L531.315 91.104ZM489.171 92.736L491.127 90.461L491.127 90.461L489.171 92.736ZM493.779 67.296L494.8 70.1169L494.807 70.1142L494.815 70.1115L493.779 67.296ZM530.931 63.552V66.552H533.931V63.552H530.931ZM507.603 60.96V63.96H510.144L510.562 61.4532L507.603 60.96ZM485.811 60.96L482.849 60.486L482.293 63.96H485.811V60.96ZM494.739 47.424L496.149 50.072L496.161 50.0654L494.739 47.424ZM539.667 45.408L538.868 48.2996L538.89 48.3058L538.913 48.3117L539.667 45.408ZM549.939 51.168L547.539 52.968L547.553 52.987L547.568 53.0057L549.939 51.168ZM553.491 93.216L550.706 94.3302L550.752 94.446L550.808 94.5576L553.491 93.216ZM531.219 72.672L534.161 73.2603L534.917 69.4791L531.066 69.6759L531.219 72.672ZM518.067 73.344L518.214 76.3404L518.22 76.3401L518.067 73.344ZM509.427 74.88L510.574 77.652L510.614 77.6354L510.654 77.6175L509.427 74.88ZM508.563 82.464L506.62 84.7498L506.654 84.7787L506.689 84.8066L508.563 82.464ZM522.003 82.56L521.054 79.7139L521.045 79.7172L521.035 79.7205L522.003 82.56ZM528.819 78.336L531.053 80.3386L531.055 80.3364L528.819 78.336ZM555.699 93H532.179V99H555.699V93ZM535.095 95.2961C534.671 93.5365 534.414 92.0544 534.303 90.8324L528.327 91.3756C528.472 92.9696 528.791 94.7515 529.263 96.7039L535.095 95.2961ZM530.058 88.3801C521.182 92.4766 513.2 94.44 506.067 94.44V100.44C514.294 100.44 523.144 98.1794 532.572 93.8279L530.058 88.3801ZM506.067 94.44C498.773 94.44 493.991 92.9234 491.127 90.461L487.215 95.0109C491.647 98.8206 498.129 100.44 506.067 100.44V94.44ZM491.127 90.461C488.086 87.8473 486.699 84.8471 486.699 81.312H480.699C480.699 86.7369 482.96 91.3527 487.215 95.0109L491.127 90.461ZM486.699 81.312C486.699 78.3553 487.41 76.1055 488.655 74.3756C489.904 72.6377 491.87 71.1773 494.8 70.1169L492.758 64.4751C488.968 65.8467 485.894 67.9383 483.783 70.8724C481.668 73.8145 480.699 77.3567 480.699 81.312H486.699ZM494.815 70.1115C501.043 67.8199 512.744 66.552 530.355 66.552V60.552C512.766 60.552 500.083 61.7801 492.743 64.4805L494.815 70.1115ZM530.355 66.552H530.931V60.552H530.355V66.552ZM533.931 63.552V62.976H527.931V63.552H533.931ZM533.931 62.976C533.931 59.764 532.509 57.1122 529.748 55.4415C527.231 53.9175 523.84 53.352 519.987 53.352V59.352C523.43 59.352 525.511 59.8905 526.642 60.5745C527.529 61.1117 527.931 61.772 527.931 62.976H533.931ZM519.987 53.352C515.986 53.352 512.598 53.7393 510.037 54.6923C507.431 55.662 505.145 57.4592 504.644 60.4668L510.562 61.4532C510.573 61.3888 510.607 60.882 512.129 60.3157C513.696 59.7326 516.244 59.352 519.987 59.352V53.352ZM507.603 57.96H485.811V63.96H507.603V57.96ZM488.773 61.434C489.676 55.7925 492.191 52.1796 496.149 50.072L493.329 44.776C487.431 47.9164 483.994 53.3275 482.849 60.486L488.773 61.434ZM496.161 50.0654C500.463 47.7492 507.985 46.392 519.219 46.392V40.392C507.797 40.392 498.999 41.7228 493.317 44.7826L496.161 50.0654ZM519.219 46.392C527.884 46.392 534.387 47.0615 538.868 48.2996L540.466 42.5164C535.219 41.0665 528.09 40.392 519.219 40.392V46.392ZM538.913 48.3117C543.547 49.5152 546.206 51.1907 547.539 52.968L552.339 49.368C549.832 46.0253 545.643 43.8608 540.421 42.5043L538.913 48.3117ZM547.568 53.0057C549.013 54.871 549.915 57.6624 549.915 61.728H555.915C555.915 56.8335 554.833 52.585 552.31 49.3303L547.568 53.0057ZM549.915 61.728V88.608H555.915V61.728H549.915ZM549.915 88.608C549.915 90.7875 550.097 92.8094 550.706 94.3302L556.276 92.1018C556.117 91.7026 555.915 90.6525 555.915 88.608H549.915ZM550.808 94.5576C551.464 95.8706 552.46 97.0758 553.647 98.1886L557.751 93.8114C556.89 93.0042 556.414 92.3534 556.174 91.8744L550.808 94.5576ZM531.066 69.6759L517.914 70.3479L518.22 76.3401L531.372 75.6681L531.066 69.6759ZM517.92 70.3476C513.922 70.5442 510.582 71.0746 508.2 72.1425L510.654 77.6175C511.984 77.0214 514.404 76.5278 518.214 76.3404L517.92 70.3476ZM508.28 72.1079C506.941 72.662 505.731 73.5127 504.87 74.7594C504.003 76.0157 503.643 77.4527 503.643 78.912H509.643C509.643 78.4513 509.747 78.2563 509.808 78.1686C509.875 78.0713 510.057 77.866 510.574 77.652L508.28 72.1079ZM503.643 78.912C503.643 81.3284 504.893 83.2818 506.62 84.7498L510.506 80.1782C509.673 79.4702 509.643 79.0556 509.643 78.912H503.643ZM506.689 84.8066C508.747 86.4533 511.548 87 514.515 87V81C512.106 81 510.939 80.5227 510.437 80.1214L506.689 84.8066ZM514.515 87C517.116 87 519.95 86.4295 522.971 85.3995L521.035 79.7205C518.424 80.6105 516.266 81 514.515 81V87ZM522.952 85.406C526.219 84.317 528.973 82.6588 531.053 80.3386L526.585 76.3334C525.337 77.7252 523.547 78.883 521.054 79.7139L522.952 85.406ZM531.055 80.3364C532.654 78.5495 533.601 76.0608 534.161 73.2603L528.277 72.0837C527.813 74.4032 527.16 75.6905 526.583 76.3356L531.055 80.3364ZM583.922 96V99H586.922V96H583.922ZM561.842 96H558.842V99H561.842V96ZM561.842 78.336V75.336H558.842V78.336H561.842ZM583.922 78.336H586.922V75.336H583.922V78.336ZM583.922 93H561.842V99H583.922V93ZM564.842 96V78.336H558.842V96H564.842ZM561.842 81.336H583.922V75.336H561.842V81.336ZM580.922 78.336V96H586.922V78.336H580.922Z" fill="black" mask="url(#path-1-outside-1_4206_1044)"/>
<path d="M290.272 124.752C286.56 131.792 281.12 140.752 278.112 147.088C277.344 148.752 276.96 150.16 276.96 151.184C276.96 152.144 277.216 152.592 277.792 152.592C280.032 152.592 283.168 148.368 285.344 144.144C285.984 142.928 286.816 142.992 287.392 144.144C287.712 144.72 287.968 146.512 287.136 148.304C285.408 151.76 281.44 155.088 277.728 155.088C274.592 155.088 272.48 154 271.968 151.184C269.984 153.232 267.488 154.896 264.672 154.896C260.96 154.896 258.912 152.144 258.912 148.368C258.912 145.68 260.064 142.16 262.304 138.896C267.296 131.664 272.608 128.656 275.936 128.656C278.112 128.656 279.52 129.552 280.032 131.216C283.232 125.2 287.392 117.968 289.504 114.96C290.656 113.36 291.552 113.488 292.192 115.024C292.512 115.792 292.768 116.624 292.768 117.52C292.768 119.248 291.936 121.744 290.272 124.752ZM273.568 142.928C277.024 136.336 278.176 132.624 276.96 132.56C275.168 132.496 270.944 136.4 267.552 141.776C265.632 144.784 264.608 147.984 264.608 150.096C264.608 151.248 264.864 152.08 265.568 152.08C267.616 152.08 270.688 148.496 273.568 142.928ZM295.48 125.776C295.48 123.984 296.824 122.32 298.296 122.32C300.088 122.32 301.816 124.624 301.816 126.48C301.816 128.208 300.856 129.68 299.256 129.68C297.208 129.68 295.48 127.76 295.48 125.776ZM300.216 148.24C298.296 152.272 293.88 154.96 290.104 154.96C286.2 154.96 284.471 152.72 284.471 149.52C284.471 148.304 284.727 146.96 285.239 145.296C286.84 140.816 290.936 133.392 293.304 130.064C294.264 128.784 295.032 128.656 295.864 129.616C297.08 130.896 297.592 133.648 295.928 136.848C294.712 139.6 291.768 144.4 290.68 146.96C290.104 148.432 289.784 149.776 289.784 150.8C289.784 151.824 290.04 152.4 290.744 152.4C293.304 152.4 296.632 148.112 298.616 143.76C299.128 142.608 299.96 142.736 300.536 143.888C301.112 144.976 301.048 146.576 300.216 148.24ZM305.81 136.72C304.21 143.056 303.57 145.616 302.994 149.008C307.602 141.904 314.578 132.752 318.354 128.848C319.762 127.504 320.53 127.76 320.722 129.296C320.914 130.704 320.21 132.432 318.034 135.056C312.21 142.032 307.858 147.152 303.25 154.448C302.802 155.152 302.098 155.664 301.138 155.216C298.514 154 297.425 152.528 297.617 149.136C297.873 144.72 299.538 135.824 301.778 129.168C302.161 128.016 303.058 127.696 304.082 128.528C305.554 129.808 306.258 131.344 306.258 133.264C306.258 134.288 306.13 135.44 305.81 136.72ZM324.247 140.176C323.927 140.752 323.799 141.008 323.671 141.328C324.183 141.584 324.631 141.712 325.079 141.712C326.743 141.712 328.471 139.856 329.751 138.128C331.543 135.824 333.015 132.688 332.375 132.176C331.223 131.28 326.871 134.992 324.247 140.176ZM359.959 143.952C360.279 144.656 360.471 146.448 359.639 148.24C358.039 152.208 353.303 154.96 349.527 154.96C345.495 154.96 343.255 152.144 343.255 148.368C343.255 147.344 343.447 146.192 343.895 144.848C344.983 141.392 347.479 137.872 350.039 134.864C348.311 135.632 346.711 135.888 345.303 135.952C340.055 146.896 333.207 154.704 325.399 154.832C319.511 154.896 316.247 151.056 316.247 146C316.247 143.76 316.887 141.2 318.167 138.64C321.495 132.112 326.743 128.528 330.391 128.528C331.223 128.528 331.927 128.656 332.567 129.04C334.295 130.128 335.511 131.088 336.535 132.368C336.855 132.944 337.111 133.712 337.111 134.48C337.111 136.336 336.151 138.96 334.423 141.2C332.567 143.504 330.135 145.104 327.319 145.104C325.783 145.104 324.247 144.72 322.775 143.696C322.391 144.976 322.199 146.32 322.199 147.472C322.199 150.416 323.351 152.336 325.143 152.336C331.543 152.336 338.199 143.12 341.591 135.312C340.439 134.608 339.799 133.648 339.799 132.496C339.799 129.104 344.087 124.432 346.263 124.368C347.607 124.368 348.119 125.2 348.119 126.608C348.119 127.952 347.607 129.872 346.903 131.984C348.695 131.536 350.359 130.64 352.471 129.296C353.495 128.656 354.391 128.208 355.159 129.232C355.991 130.32 357.079 132.048 357.079 133.648C357.079 134.416 356.759 135.248 355.991 136.08C353.239 139.28 350.103 143.632 348.951 146.896C348.695 147.728 348.503 148.88 348.503 149.648C348.503 151.312 349.015 152.4 349.911 152.4C352.215 152.4 355.863 148.496 357.783 144.016C358.359 142.8 359.319 142.544 359.959 143.952ZM365.298 152.016C366.642 152.016 367.218 148.816 367.218 144.656C367.218 142.608 367.154 140.56 367.026 138.832C365.49 141.264 363.698 144.016 361.778 146.768C362.546 149.776 363.89 152.016 365.298 152.016ZM356.529 145.872C356.529 143.952 357.169 142.096 358.578 140.88C359.858 139.792 360.818 140.112 361.01 141.648C363.122 138.64 365.362 135.312 367.026 132.56C367.282 130.256 368.05 128.784 369.522 127.568C370.546 126.672 371.698 126.224 372.658 126.224C374.385 126.224 374.77 127.632 372.786 130.896C372.722 131.664 372.658 132.752 372.658 133.584C372.658 138.128 373.49 142.288 373.362 145.744C373.298 147.344 372.978 149.136 372.274 150.544C374.898 148.752 376.69 146.64 377.842 143.504C378.418 142.032 379.378 142.48 379.826 143.504C380.146 144.144 380.338 145.936 379.186 147.92C376.753 152.4 372.274 154.832 367.474 155.024C363.634 155.152 359.794 154.128 357.617 150.096C356.913 148.88 356.529 147.344 356.529 145.872ZM393.186 132.176C392.226 131.408 387.49 135.312 384.418 141.456C384.93 141.776 385.378 141.904 385.826 141.904C387.362 141.904 389.41 139.984 390.69 138.256C392.546 135.76 393.89 132.752 393.186 132.176ZM397.986 134.736C397.986 138.576 393.698 145.296 388.066 145.296C386.53 145.296 384.994 144.848 383.522 143.888C383.138 145.168 382.946 146.512 382.946 147.664C382.946 150.48 384.098 152.464 386.018 152.464C390.882 152.464 395.17 147.728 397.794 143.76C398.498 142.736 399.33 142.608 399.842 143.888C400.034 144.464 400.098 146.32 398.946 148.048C396.258 151.952 391.138 154.96 386.146 155.024C380.194 155.088 376.93 151.184 376.93 146.064C376.93 143.76 377.57 141.264 378.914 138.704C382.242 131.92 387.426 128.528 391.138 128.528C392.034 128.528 392.738 128.656 393.378 129.04C395.17 130.064 396.45 131.088 397.346 132.368C397.73 132.944 397.986 133.904 397.986 134.736ZM419.173 152.016C420.517 152.016 421.093 148.816 421.093 144.656C421.093 142.608 421.029 140.56 420.901 138.832C419.365 141.264 417.573 144.016 415.653 146.768C416.421 149.776 417.765 152.016 419.173 152.016ZM410.404 145.872C410.404 143.952 411.044 142.096 412.453 140.88C413.733 139.792 414.693 140.112 414.885 141.648C416.997 138.64 419.237 135.312 420.901 132.56C421.157 130.256 421.925 128.784 423.397 127.568C424.421 126.672 425.573 126.224 426.533 126.224C428.26 126.224 428.645 127.632 426.661 130.896C426.597 131.664 426.533 132.752 426.533 133.584C426.533 138.128 427.365 142.288 427.237 145.744C427.173 147.344 426.853 149.136 426.149 150.544C428.773 148.752 430.565 146.64 431.717 143.504C432.293 142.032 433.253 142.48 433.701 143.504C434.021 144.144 434.213 145.936 433.061 147.92C430.628 152.4 426.149 154.832 421.349 155.024C417.509 155.152 413.669 154.128 411.492 150.096C410.788 148.88 410.404 147.344 410.404 145.872ZM440.974 138.96L438.926 142.416C436.942 146.512 437.39 151.12 439.054 151.12C441.038 151.12 443.918 147.6 446.542 142.288C448.078 139.28 448.846 136.016 448.846 133.904C448.846 132.752 448.718 131.984 448.398 131.856C447.246 131.344 443.726 134.288 440.974 138.96ZM454.286 135.824C454.286 138.576 453.262 141.84 451.79 144.912C450.253 148.432 448.142 151.312 446.094 152.976C450.83 152.016 454.478 147.792 456.334 144.08C457.102 142.608 458.446 142.928 458.702 144.208C458.83 144.848 458.894 146.64 457.806 148.56C454.926 153.744 449.55 155.536 444.238 155.536C439.182 155.536 436.046 153.808 434.574 150.352C431.758 155.6 429.005 161.104 426.317 167.376C425.805 168.528 425.037 168.784 424.397 168.016C423.438 166.8 423.117 165.904 423.117 164.56C423.117 163.536 423.309 162.192 423.885 160.4C425.741 154.32 436.302 134.416 440.27 129.104C441.422 127.696 442.254 127.952 442.766 128.656C443.278 129.36 443.406 130.192 443.406 131.024C445.006 129.936 446.862 129.104 448.59 129.104C452.43 129.104 454.286 132.56 454.286 135.824ZM472.249 132.176C471.289 131.408 466.553 135.312 463.481 141.456C463.993 141.776 464.441 141.904 464.889 141.904C466.425 141.904 468.473 139.984 469.753 138.256C471.609 135.76 472.953 132.752 472.249 132.176ZM477.049 134.736C477.049 138.576 472.76 145.296 467.129 145.296C465.593 145.296 464.057 144.848 462.585 143.888C462.201 145.168 462.009 146.512 462.009 147.664C462.009 150.48 463.161 152.464 465.081 152.464C469.945 152.464 474.233 147.728 476.857 143.76C477.561 142.736 478.393 142.608 478.905 143.888C479.097 144.464 479.161 146.32 478.009 148.048C475.321 151.952 470.201 154.96 465.209 155.024C459.257 155.088 455.992 151.184 455.992 146.064C455.992 143.76 456.633 141.264 457.977 138.704C461.305 131.92 466.489 128.528 470.201 128.528C471.097 128.528 471.801 128.656 472.441 129.04C474.233 130.064 475.513 131.088 476.409 132.368C476.793 132.944 477.049 133.904 477.049 134.736ZM479.757 138.832C484.877 131.472 490.125 128.464 493.389 128.464C495.693 128.464 497.101 129.616 497.677 131.28L498.893 129.296C499.661 128.016 500.749 127.952 501.517 128.848C502.605 130.128 503.181 132.944 501.517 136.272C499.853 139.792 494.477 146.768 494.477 151.056C494.477 152.016 494.733 152.592 495.373 152.592C497.677 152.592 500.877 148.24 502.989 144.08C503.693 142.8 504.269 142.736 504.909 144.08C505.165 144.656 505.549 146.384 504.653 148.24C502.989 151.76 498.893 155.152 494.989 155.152C491.789 155.152 489.933 153.488 489.421 151.12C487.565 152.912 484.685 154.896 482.125 154.896C478.349 154.896 476.3 152.144 476.3 148.368C476.3 145.616 477.453 142.032 479.757 138.832ZM482.957 152.08C485.069 152.08 488.013 148.176 491.149 142.8C493.645 138.448 494.797 135.312 494.797 133.648C494.797 132.88 494.669 132.432 494.029 132.432C492.749 132.432 488.333 136.464 485.069 141.712C483.149 144.72 482.061 148.112 482.061 150.16C482.061 151.312 482.317 152.08 482.957 152.08ZM523.099 115.344C523.099 117.84 520.219 122.704 516.379 129.68C517.531 128.848 518.619 128.4 519.707 128.016C522.587 126.992 524.315 128.016 525.723 130.96C526.235 131.92 526.491 132.944 526.491 134.032C526.491 135.568 525.851 137.168 524.251 138.704C522.203 140.688 519.579 142.48 515.803 143.76C516.059 148.56 517.595 152.08 519.515 152.08C521.691 152.08 525.211 147.6 527.003 143.888C527.771 142.352 528.603 142.224 529.179 143.824C529.499 144.656 529.371 146.256 528.411 147.92C527.195 150.16 523.931 154.768 518.491 154.704C513.755 154.64 509.915 150.928 509.915 141.968C508.187 145.04 506.459 148.944 504.411 153.744C503.963 154.64 502.939 154.96 502.171 154C501.531 153.296 501.147 152.4 501.147 151.056C501.147 150.032 501.339 148.624 501.979 146.768C504.859 138.576 514.075 120.528 519.707 112.784C520.731 111.504 521.755 111.504 522.459 112.848C522.843 113.616 523.099 114.448 523.099 115.344ZM522.203 131.152C521.691 130.384 519.451 131.152 516.507 133.392C514.331 135.056 512.539 137.36 510.619 140.56C512.475 139.92 516.955 137.936 519.067 136.208C521.627 134.096 522.779 131.984 522.203 131.152ZM534.122 140.176C533.802 140.752 533.674 141.008 533.546 141.328C534.058 141.584 534.506 141.712 534.954 141.712C536.618 141.712 538.346 139.856 539.626 138.128C541.418 135.824 542.89 132.688 542.25 132.176C541.098 131.28 536.746 134.992 534.122 140.176ZM569.834 143.952C570.154 144.656 570.346 146.448 569.514 148.24C567.914 152.208 563.178 154.96 559.402 154.96C555.37 154.96 553.13 152.144 553.13 148.368C553.13 147.344 553.322 146.192 553.77 144.848C554.858 141.392 557.354 137.872 559.914 134.864C558.186 135.632 556.586 135.888 555.178 135.952C549.93 146.896 543.082 154.704 535.274 154.832C529.386 154.896 526.122 151.056 526.122 146C526.122 143.76 526.762 141.2 528.042 138.64C531.37 132.112 536.618 128.528 540.266 128.528C541.098 128.528 541.802 128.656 542.442 129.04C544.17 130.128 545.386 131.088 546.41 132.368C546.73 132.944 546.986 133.712 546.986 134.48C546.986 136.336 546.026 138.96 544.298 141.2C542.442 143.504 540.01 145.104 537.194 145.104C535.658 145.104 534.122 144.72 532.65 143.696C532.266 144.976 532.074 146.32 532.074 147.472C532.074 150.416 533.226 152.336 535.018 152.336C541.418 152.336 548.074 143.12 551.466 135.312C550.314 134.608 549.674 133.648 549.674 132.496C549.674 129.104 553.962 124.432 556.138 124.368C557.482 124.368 557.994 125.2 557.994 126.608C557.994 127.952 557.482 129.872 556.778 131.984C558.57 131.536 560.234 130.64 562.346 129.296C563.37 128.656 564.266 128.208 565.034 129.232C565.866 130.32 566.954 132.048 566.954 133.648C566.954 134.416 566.634 135.248 565.866 136.08C563.114 139.28 559.978 143.632 558.826 146.896C558.57 147.728 558.378 148.88 558.378 149.648C558.378 151.312 558.89 152.4 559.786 152.4C562.09 152.4 565.738 148.496 567.658 144.016C568.234 142.8 569.194 142.544 569.834 143.952ZM575.173 152.016C576.517 152.016 577.093 148.816 577.093 144.656C577.093 142.608 577.029 140.56 576.901 138.832C575.365 141.264 573.573 144.016 571.653 146.768C572.421 149.776 573.765 152.016 575.173 152.016ZM566.404 145.872C566.404 143.952 567.044 142.096 568.453 140.88C569.733 139.792 570.693 140.112 570.885 141.648C572.997 138.64 575.237 135.312 576.901 132.56C577.157 130.256 577.925 128.784 579.397 127.568C580.421 126.672 581.573 126.224 582.533 126.224C584.26 126.224 584.645 127.632 582.661 130.896C582.597 131.664 582.533 132.752 582.533 133.584C582.533 138.128 583.365 142.288 583.237 145.744C583.173 147.344 582.853 149.136 582.149 150.544C584.773 148.752 586.565 146.64 587.717 143.504C588.293 142.032 589.253 142.48 589.701 143.504C590.021 144.144 590.213 145.936 589.061 147.92C586.628 152.4 582.149 154.832 577.349 155.024C573.509 155.152 569.669 154.128 567.492 150.096C566.788 148.88 566.404 147.344 566.404 145.872Z" fill="black"/>
</svg>
