<svg width="72" height="71" viewBox="0 0 72 71" fill="none" xmlns="http://www.w3.org/2000/svg">
<g filter="url(#filter0_d_2291_126)">
<path d="M4.625 62.8125C4.4375 62.5 4.34375 61.9375 4.34375 61.125C4.34375 60.1875 4.4375 59.7188 4.625 59.7188C5.125 59.7188 5.8125 59.5938 6.6875 59.3438C7.625 59.1562 8.46875 58.875 9.21875 58.5C10.0312 58.1875 10.5 57.875 10.625 57.5625C11 55.75 11.1875 53.5 11.1875 50.8125V15C11.1875 11.9375 10.6875 9.90625 9.6875 8.90625C9.125 8.21875 8.4375 7.75 7.625 7.5C6.8125 7.25 6.0625 7.09375 5.375 7.03125C4.75 6.96875 4.4375 6.875 4.4375 6.75C4.4375 4.9375 4.625 4 5 3.9375C7.5625 3.6875 10 3.34375 12.3125 2.90625C14.6875 2.46875 16.9062 1.9375 18.9688 1.3125L20.75 0.84375C21 0.84375 21.125 1.375 21.125 2.4375C21.125 2.75 21.0938 3.03125 21.0312 3.28125C21.0312 3.46875 21 3.6875 20.9375 3.9375C21.9375 3.1875 23.3125 2.46875 25.0625 1.78125C26.875 1.03125 28.5625 0.65625 30.125 0.65625C33.9375 0.65625 37.3438 1.5625 40.3438 3.375C43.3438 5.1875 45.6875 7.59375 47.375 10.5938C49.125 13.5938 50 16.875 50 20.4375C50 24.6875 49 28.5 47 31.875C45 35.25 42.3125 37.9062 38.9375 39.8438C35.625 41.7812 31.9688 42.75 27.9688 42.75C26.2812 42.75 24.0625 42.3125 21.3125 41.4375C21.0625 41.4375 20.9375 41.875 20.9375 42.75V49.125C20.9375 52.875 21.1875 55.6875 21.6875 57.5625C21.75 57.875 22.1562 58.1875 22.9062 58.5C23.7188 58.875 24.5625 59.1562 25.4375 59.3438C26.375 59.5938 27.0312 59.7188 27.4062 59.7188C27.5938 59.7188 27.6875 60.1562 27.6875 61.0312C27.75 61.9688 27.75 62.5625 27.6875 62.8125L22.7188 62.5312C19.8438 62.3438 17.6875 62.25 16.25 62.25C14.6875 62.25 12.5 62.3438 9.6875 62.5312L4.625 62.8125ZM28.9062 38.25C31.7812 38.25 34.1875 36.9375 36.125 34.3125C38.125 31.6875 39.125 28 39.125 23.25C39.125 18.1875 38.125 14 36.125 10.6875C34.125 7.3125 31.375 5.625 27.875 5.625C25.8125 5.625 24.125 6.21875 22.8125 7.40625C21.5625 8.59375 20.9375 10.1875 20.9375 12.1875V31.5C20.9375 33.5625 21.7812 35.2188 23.4688 36.4688C25.1562 37.6562 26.9688 38.25 28.9062 38.25ZM61.7188 43.125C59.5938 43.125 58 42.4688 56.9375 41.1562C55.9375 39.7812 55.4375 38.3125 55.4375 36.75C55.4375 35.1875 55.9375 33.75 56.9375 32.4375C58 31.125 59.5938 30.4688 61.7188 30.4688C63.7812 30.4688 65.3125 31.125 66.3125 32.4375C67.375 33.75 67.9062 35.2188 67.9062 36.8438C67.9062 38.4062 67.375 39.8438 66.3125 41.1562C65.3125 42.4688 63.7812 43.125 61.7188 43.125Z" fill="black"/>
</g>
<defs>
<filter id="filter0_d_2291_126" x="0.34375" y="0.65625" width="71.5625" height="70.1562" filterUnits="userSpaceOnUse" color-interpolation-filters="sRGB">
<feFlood flood-opacity="0" result="BackgroundImageFix"/>
<feColorMatrix in="SourceAlpha" type="matrix" values="0 0 0 0 0 0 0 0 0 0 0 0 0 0 0 0 0 0 127 0" result="hardAlpha"/>
<feOffset dy="4"/>
<feGaussianBlur stdDeviation="2"/>
<feComposite in2="hardAlpha" operator="out"/>
<feColorMatrix type="matrix" values="0 0 0 0 0 0 0 0 0 0 0 0 0 0 0 0 0 0 0.25 0"/>
<feBlend mode="normal" in2="BackgroundImageFix" result="effect1_dropShadow_2291_126"/>
<feBlend mode="normal" in="SourceGraphic" in2="effect1_dropShadow_2291_126" result="shape"/>
</filter>
</defs>
</svg>
